{"glyphs":{"0":{"ha":746,"x_min":111,"x_max":881,"o":"m 254 0 q 137 55 177 0 q 111 136 111 90 q 118 186 111 160 l 263 729 q 353 861 284 806 q 500 916 422 916 l 737 916 q 854 861 814 916 q 881 780 881 825 q 873 729 881 755 l 728 186 q 638 55 707 109 q 492 0 569 0 l 254 0 m 378 271 q 375 254 375 262 q 385 224 375 237 q 427 203 399 203 q 480 223 455 203 q 513 271 506 243 l 614 644 q 616 662 616 654 q 606 692 616 679 q 564 712 591 712 q 511 692 536 712 q 478 644 486 672 l 378 271 z "},"1":{"ha":475,"x_min":170,"x_max":652,"o":"m 407 0 l 170 0 l 360 712 l 258 712 l 313 916 l 652 916 l 407 0 z "},"2":{"ha":746,"x_min":68,"x_max":861,"o":"m 473 373 q 420 353 445 373 q 387 305 395 333 l 359 203 l 732 203 l 678 0 l 68 0 l 150 305 q 280 497 180 418 q 494 576 381 576 l 528 576 q 581 596 555 576 q 614 644 606 616 q 616 662 616 654 q 606 692 616 679 q 564 712 591 712 l 394 712 l 449 916 l 652 916 q 823 836 765 916 q 861 717 861 784 q 851 644 861 682 q 720 452 821 532 q 507 373 619 373 l 473 373 z "},"3":{"ha":746,"x_min":68,"x_max":881,"o":"m 473 373 l 303 373 l 358 576 l 528 576 q 581 596 555 576 q 614 644 606 616 q 616 662 616 654 q 606 692 616 679 q 564 712 591 712 l 258 712 l 313 916 l 737 916 q 854 861 814 916 q 881 780 881 825 q 873 729 881 755 l 833 576 q 738 475 816 513 q 782 401 782 446 q 778 373 782 388 l 728 186 q 638 55 707 109 q 492 0 569 0 l 68 0 l 122 203 l 427 203 q 480 223 455 203 q 513 271 506 243 l 523 305 q 526 323 526 315 q 515 353 526 340 q 473 373 500 373 z "},"4":{"ha":746,"x_min":122,"x_max":924,"o":"m 524 814 q 757 916 618 916 l 924 916 l 869 712 l 699 712 l 405 373 l 541 373 l 577 509 l 814 509 l 678 0 l 441 0 l 495 203 l 122 203 l 177 407 l 524 814 z "},"5":{"ha":746,"x_min":68,"x_max":788,"o":"m 473 373 l 168 373 l 313 916 l 788 916 l 733 712 l 496 712 l 460 576 l 562 576 q 732 497 674 576 q 770 378 770 445 q 760 305 770 343 l 751 271 q 620 79 721 159 q 407 0 519 0 l 68 0 l 122 203 l 427 203 q 480 223 455 203 q 513 271 506 243 l 523 305 q 526 323 526 315 q 515 353 526 340 q 473 373 500 373 z "},"6":{"ha":746,"x_min":111,"x_max":790,"o":"m 405 373 l 378 271 q 375 254 375 262 q 385 224 375 237 q 427 203 399 203 q 480 223 455 203 q 513 271 506 243 l 523 305 q 526 323 526 315 q 515 353 526 340 q 473 373 500 373 l 405 373 m 254 0 q 137 55 177 0 q 111 136 111 90 q 118 186 111 160 l 263 729 q 353 861 284 806 q 500 916 422 916 l 788 916 l 733 712 l 564 712 q 511 692 536 712 q 478 644 486 672 l 460 576 l 646 576 q 764 522 724 576 q 790 441 790 486 q 783 390 790 416 l 728 186 q 638 55 707 109 q 492 0 569 0 l 254 0 z "},"7":{"ha":678,"x_min":136,"x_max":856,"o":"m 564 712 l 258 712 l 313 916 l 856 916 l 801 712 l 373 0 l 136 0 l 564 712 z "},"8":{"ha":746,"x_min":111,"x_max":881,"o":"m 427 203 q 480 223 455 203 q 513 271 506 243 l 523 305 q 526 323 526 315 q 515 353 526 340 q 473 373 500 373 q 420 353 445 373 q 387 305 395 333 l 378 271 q 375 254 375 262 q 385 224 375 237 q 427 203 399 203 m 528 576 q 581 596 555 576 q 614 644 606 616 q 616 662 616 654 q 606 692 616 679 q 564 712 591 712 q 511 692 536 712 q 478 644 486 672 q 475 627 475 635 q 486 597 475 610 q 528 576 500 576 m 737 916 q 854 861 814 916 q 881 780 881 825 q 873 729 881 755 l 833 576 q 738 475 816 513 q 782 401 782 446 q 778 373 782 388 l 728 186 q 638 55 707 109 q 492 0 569 0 l 254 0 q 137 55 177 0 q 111 136 111 90 q 118 186 111 160 l 168 373 q 263 475 185 437 q 218 549 218 504 q 222 576 218 562 l 263 729 q 353 861 284 806 q 500 916 422 916 l 737 916 z "},"9":{"ha":746,"x_min":201,"x_max":881,"o":"m 586 543 l 614 644 q 616 662 616 654 q 606 692 616 679 q 564 712 591 712 q 511 692 536 712 q 478 644 486 672 l 469 610 q 466 593 466 601 q 476 563 466 576 q 518 543 490 543 l 586 543 m 737 916 q 854 861 814 916 q 881 780 881 825 q 873 729 881 755 l 728 186 q 638 55 707 109 q 492 0 569 0 l 203 0 l 258 203 l 427 203 q 480 223 455 203 q 513 271 506 243 l 532 339 l 345 339 q 228 394 268 339 q 201 475 201 429 q 209 526 201 499 l 263 729 q 353 861 284 806 q 500 916 422 916 l 737 916 z "},"\u0000":{"ha":102,"x_min":0,"x_max":0,"o":""}," ":{"ha":678,"x_min":0,"x_max":0,"o":""},"!":{"ha":373,"x_min":68,"x_max":551,"o":"m 122 203 l 359 203 l 305 0 l 68 0 l 122 203 m 140 271 l 313 916 l 551 916 l 378 271 l 140 271 z "},"\"":{"ha":678,"x_min":267,"x_max":856,"o":"m 313 916 l 551 916 l 514 780 q 444 644 496 712 l 392 576 l 290 576 l 275 644 q 267 708 267 676 q 277 780 267 744 l 313 916 m 618 916 l 856 916 l 819 780 q 749 644 801 712 l 697 576 l 595 576 l 580 644 q 572 708 572 676 q 582 780 572 744 l 618 916 z "},"#":{"ha":916,"x_min":122,"x_max":1038,"o":"m 543 509 l 516 407 l 618 407 l 645 509 l 543 509 m 461 203 l 434 102 l 197 102 l 224 203 l 122 203 l 177 407 l 279 407 l 306 509 l 204 509 l 258 712 l 360 712 l 388 814 l 625 814 l 597 712 l 699 712 l 727 814 l 964 814 l 937 712 l 1038 712 l 984 509 l 882 509 l 855 407 l 957 407 l 902 203 l 800 203 l 773 102 l 536 102 l 563 203 l 461 203 z "},"$":{"ha":746,"x_min":86,"x_max":838,"o":"m 500 284 q 503 286 502 286 q 527 322 522 301 q 529 336 529 330 q 522 358 529 349 q 520 360 522 359 q 490 373 509 373 l 405 373 q 256 443 307 373 q 222 547 222 488 q 231 610 222 576 q 347 779 258 709 q 463 839 402 823 l 465 848 l 483 916 l 720 916 l 702 848 l 838 848 l 783 644 l 512 644 q 485 634 498 644 q 469 610 473 625 q 467 602 467 606 q 473 587 467 593 q 494 576 479 576 l 578 576 q 739 502 684 576 q 774 391 774 453 q 764 322 774 358 q 642 142 736 217 q 494 73 571 87 l 475 0 l 237 0 l 256 68 l 86 68 l 140 271 l 463 271 q 500 284 482 271 z "},"%":{"ha":1085,"x_min":102,"x_max":1229,"o":"m 460 576 q 457 559 457 567 q 467 529 457 542 q 509 509 481 509 q 563 529 537 509 q 595 576 588 549 l 614 644 q 616 662 616 654 q 606 692 616 679 q 564 712 591 712 q 511 692 536 712 q 478 644 486 672 l 460 576 m 717 271 q 714 254 714 262 q 724 224 714 237 q 766 203 739 203 q 820 223 794 203 q 852 271 845 243 l 871 339 q 873 357 873 349 q 864 387 873 374 q 821 407 849 407 q 768 387 793 407 q 735 339 743 367 l 717 271 m 387 305 l 336 305 q 219 360 259 305 q 193 442 193 396 q 199 492 193 466 l 263 729 q 353 861 284 806 q 500 916 422 916 l 737 916 q 854 861 814 916 q 873 825 867 844 l 958 916 l 1229 916 l 943 610 l 994 610 q 1112 556 1072 610 q 1138 475 1138 520 q 1131 424 1138 450 l 1067 186 q 977 55 1046 109 q 831 0 908 0 l 593 0 q 477 55 516 0 q 458 90 464 71 l 373 0 l 102 0 l 387 305 z "},"&":{"ha":746,"x_min":111,"x_max":833,"o":"m 453 370 q 420 353 435 366 q 387 305 395 333 l 378 271 q 375 254 375 262 q 385 224 375 237 q 427 203 399 203 l 447 203 l 453 370 m 254 0 q 137 55 177 0 q 111 136 111 90 q 118 186 111 160 l 168 373 q 263 475 185 437 q 218 549 218 504 q 222 576 218 562 l 263 729 q 353 861 284 806 q 500 916 422 916 l 788 916 l 733 712 l 564 712 q 511 692 536 712 q 478 644 486 672 q 475 627 475 635 q 486 597 475 610 q 528 576 500 576 l 833 576 l 778 373 l 690 373 l 678 0 l 254 0 z "},"'":{"ha":373,"x_min":267,"x_max":551,"o":"m 313 916 l 551 916 l 514 780 q 444 644 496 712 l 392 576 l 290 576 l 275 644 q 267 708 267 676 q 277 780 267 744 l 313 916 z "},"(":{"ha":509,"x_min":92,"x_max":705,"o":"m 410 136 l 477 136 l 422 -68 l 236 -68 q 119 -13 159 -68 q 92 68 92 22 q 100 119 92 92 l 281 797 q 371 929 302 874 q 518 983 441 983 l 705 983 l 650 780 l 582 780 q 529 760 554 780 q 496 712 503 740 l 359 203 q 357 186 357 194 q 367 156 357 169 q 410 136 382 136 z "},")":{"ha":509,"x_min":50,"x_max":661,"o":"m 172 136 q 225 156 200 136 q 258 203 250 176 l 394 712 q 397 730 397 722 q 387 760 397 747 q 345 780 372 780 l 277 780 l 332 983 l 518 983 q 635 929 595 983 q 661 846 661 892 q 654 797 661 823 l 473 119 q 382 -13 452 41 q 236 -68 313 -68 l 50 -68 l 104 136 l 172 136 z "},"*":{"ha":848,"x_min":238,"x_max":953,"o":"m 814 629 l 882 509 l 642 373 l 562 515 l 405 373 l 238 509 l 371 629 l 241 644 l 372 882 l 536 863 l 569 983 l 806 983 l 774 863 l 948 882 l 953 644 l 814 629 z "},"+":{"ha":712,"x_min":168,"x_max":799,"o":"m 337 373 l 168 373 l 222 576 l 392 576 l 437 746 l 675 746 l 629 576 l 799 576 l 744 373 l 574 373 l 529 203 l 292 203 l 337 373 z "},",":{"ha":373,"x_min":22,"x_max":359,"o":"m 310 17 q 220 -115 289 -60 q 73 -170 151 -170 l 22 -170 l 122 203 l 359 203 l 310 17 z "},"-":{"ha":678,"x_min":168,"x_max":765,"o":"m 168 373 l 222 576 l 765 576 l 710 373 l 168 373 z "},".":{"ha":373,"x_min":68,"x_max":359,"o":"m 122 203 l 359 203 l 305 0 l 68 0 l 122 203 z "},"/":{"ha":746,"x_min":68,"x_max":924,"o":"m 305 0 l 68 0 l 686 916 l 924 916 l 305 0 z "},":":{"ha":373,"x_min":68,"x_max":460,"o":"m 122 203 l 359 203 l 305 0 l 68 0 l 122 203 m 222 576 l 460 576 l 405 373 l 168 373 l 222 576 z "},";":{"ha":373,"x_min":22,"x_max":460,"o":"m 222 576 l 460 576 l 405 373 l 168 373 l 222 576 m 310 17 q 220 -115 289 -60 q 73 -170 151 -170 l 22 -170 l 122 203 l 359 203 l 310 17 z "},"<":{"ha":678,"x_min":204,"x_max":819,"o":"m 204 509 l 548 780 l 819 780 l 475 509 l 674 237 l 403 237 l 204 509 z "},"=":{"ha":678,"x_min":132,"x_max":819,"o":"m 222 576 l 277 780 l 819 780 l 765 576 l 222 576 m 132 237 l 186 441 l 728 441 l 674 237 l 132 237 z "},">":{"ha":678,"x_min":132,"x_max":747,"o":"m 403 237 l 132 237 l 475 509 l 277 780 l 548 780 l 747 509 l 403 237 z "},"?":{"ha":746,"x_min":136,"x_max":861,"o":"m 208 271 l 235 373 q 528 576 290 576 q 581 596 555 576 q 614 644 606 616 q 616 662 616 654 q 606 692 616 679 q 564 712 591 712 l 258 712 l 313 916 l 652 916 q 823 836 765 916 q 861 717 861 784 q 851 644 861 682 q 720 452 821 532 q 507 373 619 373 q 464 339 473 373 l 446 271 l 208 271 m 427 203 l 373 0 l 136 0 l 190 203 l 427 203 z "},"@":{"ha":746,"x_min":111,"x_max":881,"o":"m 378 271 q 375 254 375 262 q 385 224 375 237 q 427 203 399 203 l 597 203 l 543 0 l 254 0 q 137 55 177 0 q 111 136 111 90 q 118 186 111 160 l 263 729 q 353 861 284 806 q 500 916 422 916 l 737 916 q 854 861 814 916 q 881 780 881 825 q 873 729 881 755 l 751 271 l 378 271 m 564 712 q 511 692 536 712 q 478 644 486 672 l 433 475 l 568 475 l 614 644 q 616 662 616 654 q 606 692 616 679 q 564 712 591 712 z "},"A":{"ha":814,"x_min":34,"x_max":817,"o":"m 551 203 l 564 712 l 258 712 l 313 916 l 720 916 q 817 840 817 916 q 816 831 817 836 l 780 0 l 34 0 l 317 576 l 554 576 l 371 203 l 551 203 z "},"B":{"ha":746,"x_min":68,"x_max":881,"o":"m 528 576 q 581 596 555 576 q 614 644 606 616 q 616 662 616 654 q 606 692 616 679 q 564 712 591 712 l 258 712 l 313 916 l 737 916 q 854 861 814 916 q 881 780 881 825 q 873 729 881 755 l 833 576 q 738 475 816 513 q 782 401 782 446 q 778 373 782 388 l 728 186 q 638 55 707 109 q 492 0 569 0 l 68 0 l 222 576 l 528 576 m 405 373 l 359 203 l 427 203 q 480 223 455 203 q 513 271 506 243 l 523 305 q 526 323 526 315 q 515 353 526 340 q 473 373 500 373 l 405 373 z "},"C":{"ha":678,"x_min":111,"x_max":856,"o":"m 427 203 l 665 203 l 610 0 l 254 0 q 137 55 177 0 q 111 136 111 90 q 118 186 111 160 l 263 729 q 353 861 284 806 q 500 916 422 916 l 856 916 l 801 712 l 564 712 q 511 692 536 712 q 478 644 486 672 l 378 271 q 375 254 375 262 q 385 224 375 237 q 427 203 399 203 z "},"D":{"ha":746,"x_min":68,"x_max":881,"o":"m 564 712 l 258 712 l 313 916 l 737 916 q 854 861 814 916 q 881 780 881 825 q 873 729 881 755 l 728 186 q 638 55 707 109 q 492 0 569 0 l 68 0 l 222 576 l 460 576 l 359 203 l 427 203 q 480 223 455 203 q 513 271 506 243 l 614 644 q 616 662 616 654 q 606 692 616 679 q 564 712 591 712 z "},"E":{"ha":678,"x_min":68,"x_max":856,"o":"m 258 712 l 313 916 l 856 916 l 801 712 l 258 712 m 222 576 l 697 576 l 642 373 l 405 373 l 359 203 l 665 203 l 610 0 l 68 0 l 222 576 z "},"F":{"ha":678,"x_min":68,"x_max":856,"o":"m 697 576 l 642 373 l 405 373 l 305 0 l 68 0 l 222 576 l 697 576 m 258 712 l 313 916 l 856 916 l 801 712 l 258 712 z "},"G":{"ha":746,"x_min":111,"x_max":924,"o":"m 833 576 l 728 186 q 638 55 707 109 q 492 0 569 0 l 254 0 q 137 55 177 0 q 111 136 111 90 q 118 186 111 160 l 263 729 q 353 861 284 806 q 500 916 422 916 l 924 916 l 869 712 l 564 712 q 511 692 536 712 q 478 644 486 672 l 378 271 q 375 254 375 262 q 385 224 375 237 q 427 203 399 203 q 480 223 455 203 q 513 271 506 243 l 541 373 l 473 373 l 528 576 l 833 576 z "},"H":{"ha":746,"x_min":68,"x_max":924,"o":"m 401 356 l 305 0 l 68 0 l 313 916 l 551 916 l 460 576 l 595 576 l 686 916 l 924 916 l 678 0 l 441 0 l 536 356 l 401 356 z "},"I":{"ha":373,"x_min":68,"x_max":551,"o":"m 551 916 l 305 0 l 68 0 l 313 916 l 551 916 z "},"J":{"ha":509,"x_min":68,"x_max":686,"o":"m 449 916 l 686 916 l 491 186 q 401 55 470 109 q 254 0 332 0 l 68 0 l 122 203 l 190 203 q 243 223 218 203 q 276 271 269 243 l 449 916 z "},"K":{"ha":814,"x_min":68,"x_max":991,"o":"m 497 719 l 668 848 q 749 899 711 882 q 856 916 788 916 l 991 916 l 937 712 l 258 712 l 313 916 l 550 916 l 497 719 m 405 373 l 305 0 l 68 0 l 222 576 l 494 576 q 670 475 629 576 l 848 0 l 576 0 l 456 373 l 405 373 z "},"L":{"ha":678,"x_min":68,"x_max":665,"o":"m 313 916 l 551 916 l 359 203 l 665 203 l 610 0 l 68 0 l 313 916 z "},"M":{"ha":983,"x_min":68,"x_max":1118,"o":"m 851 644 q 854 662 854 654 q 844 692 854 679 q 801 712 829 712 l 258 712 l 313 916 l 975 916 q 1092 861 1052 916 q 1118 780 1118 825 q 1111 729 1118 755 l 916 0 l 678 0 l 851 644 m 610 0 l 373 0 l 528 576 l 765 576 l 610 0 m 305 0 l 68 0 l 222 576 l 460 576 l 305 0 z "},"N":{"ha":746,"x_min":68,"x_max":881,"o":"m 614 644 q 616 662 616 654 q 606 692 616 679 q 564 712 591 712 l 258 712 l 313 916 l 737 916 q 854 861 814 916 q 881 780 881 825 q 873 729 881 755 l 678 0 l 441 0 l 614 644 m 305 0 l 68 0 l 222 576 l 460 576 l 305 0 z "},"O":{"ha":746,"x_min":111,"x_max":881,"o":"m 254 0 q 137 55 177 0 q 111 136 111 90 q 118 186 111 160 l 263 729 q 353 861 284 806 q 500 916 422 916 l 737 916 q 854 861 814 916 q 881 780 881 825 q 873 729 881 755 l 728 186 q 638 55 707 109 q 492 0 569 0 l 254 0 m 378 271 q 375 254 375 262 q 385 224 375 237 q 427 203 399 203 q 480 223 455 203 q 513 271 506 243 l 614 644 q 616 662 616 654 q 606 692 616 679 q 564 712 591 712 q 511 692 536 712 q 478 644 486 672 l 378 271 z "},"P":{"ha":746,"x_min":68,"x_max":881,"o":"m 258 712 l 313 916 l 737 916 q 854 861 814 916 q 881 780 881 825 q 873 729 881 755 l 828 559 q 738 428 808 482 q 591 373 669 373 l 405 373 l 305 0 l 68 0 l 222 576 l 528 576 q 581 596 555 576 q 614 644 606 616 q 616 662 616 654 q 606 692 616 679 q 564 712 591 712 l 258 712 z "},"Q":{"ha":746,"x_min":111,"x_max":881,"o":"m 378 271 q 375 254 375 262 q 385 224 375 237 q 427 203 399 203 q 480 223 455 203 q 513 271 506 243 l 614 644 q 616 662 616 654 q 606 692 616 679 q 564 712 591 712 q 511 692 536 712 q 478 644 486 672 l 378 271 m 373 0 l 254 0 q 137 55 177 0 q 111 136 111 90 q 118 186 111 160 l 263 729 q 353 861 284 806 q 500 916 422 916 l 737 916 q 854 861 814 916 q 881 780 881 825 q 873 729 881 755 l 715 136 q 658 51 702 89 q 673 -3 673 26 q 669 -34 673 -18 l 642 -136 l 404 -136 l 422 -68 q 425 -50 425 -58 q 416 -20 425 -33 q 373 0 401 0 z "},"R":{"ha":746,"x_min":68,"x_max":881,"o":"m 68 0 l 222 576 l 595 576 l 614 644 q 616 662 616 654 q 606 692 616 679 q 564 712 591 712 l 258 712 l 313 916 l 737 916 q 854 861 814 916 q 881 780 881 825 q 873 729 881 755 l 814 509 q 720 407 798 445 q 764 333 764 378 q 760 305 764 319 l 678 0 l 441 0 l 523 305 q 526 323 526 315 q 515 353 526 340 q 473 373 500 373 l 405 373 l 305 0 l 68 0 z "},"S":{"ha":746,"x_min":68,"x_max":788,"o":"m 473 373 l 439 373 q 269 452 326 373 q 230 570 230 505 q 241 644 230 606 q 371 836 271 757 q 585 916 472 916 l 788 916 l 733 712 l 564 712 q 511 692 536 712 q 478 644 486 672 q 475 627 475 635 q 486 597 475 610 q 528 576 500 576 l 562 576 q 732 497 674 576 q 770 378 770 445 q 760 305 770 343 l 751 271 q 620 79 721 159 q 407 0 519 0 l 68 0 l 122 203 l 427 203 q 480 223 455 203 q 513 271 506 243 l 523 305 q 526 323 526 315 q 515 353 526 340 q 473 373 500 373 z "},"T":{"ha":712,"x_min":237,"x_max":890,"o":"m 629 576 l 475 0 l 237 0 l 392 576 l 629 576 m 258 712 l 313 916 l 890 916 l 835 712 l 258 712 z "},"U":{"ha":746,"x_min":111,"x_max":924,"o":"m 686 916 l 924 916 l 728 186 q 638 55 707 109 q 492 0 569 0 l 254 0 q 137 55 177 0 q 111 136 111 90 q 118 186 111 160 l 313 916 l 551 916 l 378 271 q 375 254 375 262 q 385 224 375 237 q 427 203 399 203 q 480 223 455 203 q 513 271 506 243 l 686 916 z "},"V":{"ha":814,"x_min":243,"x_max":1025,"o":"m 489 305 l 788 916 l 1025 916 l 576 0 l 339 0 q 243 77 243 0 l 243 85 l 279 916 l 517 916 l 489 305 z "},"W":{"ha":1356,"x_min":243,"x_max":1568,"o":"m 802 460 l 576 0 l 339 0 q 243 77 243 0 l 243 85 l 279 916 l 517 916 l 489 305 l 788 916 l 1059 916 l 1031 305 l 1331 916 l 1568 916 l 1119 0 l 882 0 q 785 77 785 0 l 785 85 l 802 460 z "},"X":{"ha":746,"x_min":34,"x_max":958,"o":"m 376 459 l 313 916 l 551 916 l 574 749 l 630 831 q 788 916 686 916 l 958 916 l 903 712 l 818 712 q 754 662 786 712 l 615 457 l 678 0 l 441 0 l 418 167 l 361 85 q 203 0 305 0 l 34 0 l 88 203 l 173 203 q 237 254 205 203 l 376 459 z "},"Y":{"ha":746,"x_min":211,"x_max":924,"o":"m 528 576 q 581 596 555 576 q 614 644 606 616 l 686 916 l 924 916 l 828 559 q 738 428 808 482 q 591 373 669 373 l 492 0 l 254 0 l 354 373 q 237 428 277 373 q 211 510 211 464 q 218 559 211 533 l 313 916 l 551 916 l 478 644 q 475 627 475 635 q 486 597 475 610 q 528 576 500 576 z "},"Z":{"ha":678,"x_min":68,"x_max":856,"o":"m 564 712 l 258 712 l 313 916 l 856 916 l 792 678 l 359 203 l 665 203 l 610 0 l 68 0 l 132 237 l 564 712 z "},"[":{"ha":509,"x_min":50,"x_max":705,"o":"m 342 136 l 477 136 l 422 -68 l 50 -68 l 332 983 l 705 983 l 650 780 l 514 780 l 342 136 z "},"\\":{"ha":746,"x_min":313,"x_max":678,"o":"m 313 916 l 551 916 l 678 0 l 441 0 l 313 916 z "},"]":{"ha":509,"x_min":50,"x_max":705,"o":"m 412 780 l 277 780 l 332 983 l 705 983 l 422 -68 l 50 -68 l 104 136 l 240 136 l 412 780 z "},"^":{"ha":678,"x_min":332,"x_max":874,"o":"m 618 1043 l 569 983 l 332 983 l 564 1221 l 768 1221 l 874 983 l 637 983 l 618 1043 z "},"_":{"ha":814,"x_min":-54,"x_max":712,"o":"m 0 0 l 712 0 l 658 -203 l -54 -203 l 0 0 z "},"`":{"ha":610,"x_min":395,"x_max":806,"o":"m 395 1221 l 734 1221 l 806 983 l 637 983 l 395 1221 z "},"a":{"ha":746,"x_min":123,"x_max":826,"o":"m 412 271 q 385 261 397 271 q 369 237 372 252 q 368 228 368 232 q 372 214 368 220 q 393 203 379 203 l 495 203 l 513 271 l 412 271 m 543 509 l 340 509 l 394 711 l 682 712 q 800 658 760 712 q 826 575 826 621 q 819 526 826 551 l 678 0 l 305 0 q 156 70 207 0 q 123 174 123 115 q 132 237 123 203 q 246 405 158 336 q 433 475 334 475 l 568 475 q 570 484 570 479 q 565 499 570 492 q 543 509 557 509 z "},"b":{"ha":746,"x_min":68,"x_max":826,"o":"m 68 0 l 313 916 l 551 916 l 496 712 l 682 712 q 800 658 760 712 q 826 575 826 621 q 819 526 826 551 l 728 186 q 638 55 707 109 q 492 0 569 0 l 68 0 m 359 203 l 427 203 q 480 223 455 203 q 513 271 506 243 l 559 441 q 562 458 562 450 q 552 489 562 475 q 509 509 537 509 q 456 489 481 509 q 423 441 431 469 l 359 203 z "},"c":{"ha":678,"x_min":111,"x_max":801,"o":"m 427 203 l 665 203 l 610 0 l 254 0 q 137 55 177 0 q 111 136 111 90 q 118 186 111 160 l 209 526 q 298 657 229 603 q 445 712 368 712 l 801 712 l 747 509 l 509 509 q 456 489 481 509 q 423 441 431 469 l 378 271 q 375 254 375 262 q 385 224 375 237 q 427 203 399 203 z "},"d":{"ha":746,"x_min":111,"x_max":924,"o":"m 254 0 q 137 55 177 0 q 111 136 111 90 q 118 186 111 160 l 209 526 q 298 657 229 603 q 445 712 368 712 l 631 712 l 686 916 l 924 916 l 678 0 l 254 0 m 559 441 q 562 458 562 450 q 552 489 562 475 q 509 509 537 509 q 456 489 481 509 q 423 441 431 469 l 378 271 q 375 254 375 262 q 385 224 375 237 q 427 203 399 203 l 495 203 l 559 441 z "},"e":{"ha":746,"x_min":111,"x_max":826,"o":"m 559 441 q 562 458 562 450 q 552 489 562 475 q 509 509 537 509 q 456 489 481 509 q 423 441 431 469 l 559 441 m 393 203 l 665 203 l 610 0 l 254 0 q 137 55 177 0 q 111 136 111 90 q 118 186 111 160 l 209 526 q 298 657 229 603 q 445 712 368 712 l 682 712 q 800 658 760 712 q 826 575 826 621 q 819 526 826 551 l 742 237 l 369 237 q 368 228 368 232 q 372 214 368 220 q 393 203 379 203 z "},"f":{"ha":610,"x_min":136,"x_max":788,"o":"m 528 576 l 697 576 l 642 373 l 473 373 l 373 0 l 136 0 l 235 373 l 168 373 l 222 576 l 290 576 l 331 729 q 421 861 352 806 q 568 916 490 916 l 788 916 l 733 712 l 631 712 q 578 692 604 712 q 546 644 553 672 l 528 576 z "},"g":{"ha":746,"x_min":111,"x_max":869,"o":"m 378 271 q 375 254 375 262 q 385 224 375 237 q 427 203 399 203 q 480 223 455 203 q 513 271 506 243 l 577 509 l 509 509 q 456 489 481 509 q 423 441 431 469 l 378 271 m 441 0 l 254 0 q 137 55 177 0 q 111 136 111 90 q 118 186 111 160 l 209 526 q 298 657 229 603 q 445 712 368 712 l 869 712 l 656 -85 q 566 -217 635 -162 q 419 -271 496 -271 l 131 -271 l 185 -68 l 355 -68 q 408 -48 382 -68 q 441 0 433 -28 z "},"h":{"ha":746,"x_min":68,"x_max":826,"o":"m 496 712 l 682 712 q 800 658 760 712 q 826 575 826 621 q 819 526 826 551 l 678 0 l 441 0 l 559 441 q 562 458 562 450 q 552 489 562 475 q 509 509 537 509 l 441 509 l 305 0 l 68 0 l 313 916 l 551 916 l 496 712 z "},"i":{"ha":373,"x_min":68,"x_max":551,"o":"m 258 712 l 496 712 l 305 0 l 68 0 l 258 712 m 313 916 l 551 916 l 514 780 l 277 780 l 313 916 z "},"j":{"ha":373,"x_min":-140,"x_max":551,"o":"m 258 712 l 496 712 l 283 -85 q 193 -217 262 -162 q 46 -271 123 -271 l -140 -271 l -86 -68 l -18 -68 q 35 -48 9 -68 q 68 0 60 -28 l 258 712 m 551 916 l 514 780 l 277 780 l 313 916 l 551 916 z "},"k":{"ha":746,"x_min":68,"x_max":869,"o":"m 869 712 l 814 509 l 665 509 l 594 437 l 746 0 l 509 0 l 418 262 l 359 203 l 305 0 l 68 0 l 313 916 l 551 916 l 446 527 l 563 644 q 699 712 631 712 l 869 712 z "},"l":{"ha":339,"x_min":0,"x_max":483,"o":"m 483 916 l 237 0 l 0 0 l 245 916 l 483 916 z "},"m":{"ha":983,"x_min":68,"x_max":1063,"o":"m 920 712 q 1037 658 997 712 q 1063 575 1063 621 q 1057 526 1063 551 l 916 0 l 678 0 l 796 441 q 799 458 799 450 q 789 489 799 475 q 747 509 774 509 l 610 0 l 373 0 l 509 509 l 441 509 l 305 0 l 68 0 l 258 712 l 920 712 z "},"n":{"ha":746,"x_min":68,"x_max":826,"o":"m 305 0 l 68 0 l 258 712 l 682 712 q 800 658 760 712 q 826 575 826 621 q 819 526 826 551 l 678 0 l 441 0 l 559 441 q 562 458 562 450 q 552 489 562 475 q 509 509 537 509 l 441 509 l 305 0 z "},"o":{"ha":746,"x_min":111,"x_max":826,"o":"m 254 0 q 137 55 177 0 q 111 136 111 90 q 118 186 111 160 l 209 526 q 298 657 229 603 q 445 712 368 712 l 682 712 q 800 658 760 712 q 826 575 826 621 q 819 526 826 551 l 728 186 q 638 55 707 109 q 492 0 569 0 l 254 0 m 378 271 q 375 254 375 262 q 385 224 375 237 q 427 203 399 203 q 480 223 455 203 q 513 271 506 243 l 559 441 q 562 458 562 450 q 552 489 562 475 q 509 509 537 509 q 456 489 481 509 q 423 441 431 469 l 378 271 z "},"p":{"ha":746,"x_min":-5,"x_max":826,"o":"m 682 712 q 800 658 760 712 q 826 575 826 621 q 819 526 826 551 l 728 186 q 638 55 707 109 q 492 0 569 0 l 305 0 l 233 -271 l -5 -271 l 258 712 l 682 712 m 378 271 q 375 254 375 262 q 385 224 375 237 q 427 203 399 203 q 480 223 455 203 q 513 271 506 243 l 559 441 q 562 458 562 450 q 552 489 562 475 q 509 509 537 509 l 441 509 l 378 271 z "},"q":{"ha":746,"x_min":111,"x_max":869,"o":"m 869 712 l 606 -271 l 368 -271 l 441 0 l 254 0 q 137 55 177 0 q 111 136 111 90 q 118 186 111 160 l 209 526 q 298 657 229 603 q 445 712 368 712 l 869 712 m 577 509 l 509 509 q 456 489 481 509 q 423 441 431 469 l 378 271 q 375 254 375 262 q 385 224 375 237 q 427 203 399 203 q 480 223 455 203 q 513 271 506 243 l 577 509 z "},"r":{"ha":746,"x_min":68,"x_max":826,"o":"m 305 0 l 68 0 l 258 712 l 682 712 q 800 658 760 712 q 826 575 826 621 q 819 526 826 551 l 796 441 l 559 441 q 562 458 562 450 q 552 489 562 475 q 509 509 537 509 l 441 509 l 305 0 z "},"s":{"ha":746,"x_min":68,"x_max":749,"o":"m 356 254 q 221 321 269 257 q 189 422 189 366 q 197 483 189 451 q 308 645 222 578 q 487 712 393 712 l 733 712 l 679 509 l 467 509 q 447 501 456 509 q 435 484 437 494 q 434 477 434 480 q 437 465 434 470 q 454 458 443 458 l 572 458 q 716 391 667 458 q 749 290 749 346 q 740 229 749 261 q 629 67 714 134 q 450 0 544 0 l 68 0 l 122 203 l 478 203 l 479 205 q 490 211 485 207 q 503 229 499 218 q 503 236 503 233 q 500 247 503 242 q 492 253 496 251 l 492 254 l 356 254 z "},"t":{"ha":610,"x_min":178,"x_max":733,"o":"m 446 271 q 443 254 443 262 q 453 224 443 237 q 495 203 467 203 l 597 203 l 543 0 l 322 0 q 205 55 245 0 q 178 136 178 90 q 186 186 178 160 l 272 509 l 204 509 l 258 712 l 326 712 l 381 916 l 618 916 l 564 712 l 733 712 l 679 509 l 509 509 l 446 271 z "},"u":{"ha":746,"x_min":111,"x_max":869,"o":"m 631 712 l 869 712 l 678 0 l 254 0 q 137 55 177 0 q 111 136 111 90 q 118 186 111 160 l 258 712 l 496 712 l 378 271 q 375 254 375 262 q 385 224 375 237 q 427 203 399 203 l 495 203 l 631 712 z "},"v":{"ha":746,"x_min":205,"x_max":903,"o":"m 288 0 q 205 66 205 0 l 205 68 l 224 712 l 462 712 l 450 285 l 665 712 l 903 712 l 543 0 l 288 0 z "},"w":{"ha":1221,"x_min":205,"x_max":1377,"o":"m 686 283 l 543 0 l 288 0 q 205 66 205 0 l 205 68 l 224 712 l 462 712 l 450 285 l 665 712 l 937 712 l 924 285 l 1140 712 l 1377 712 l 1017 0 l 763 0 q 680 66 680 0 l 680 68 l 686 283 z "},"x":{"ha":746,"x_min":34,"x_max":903,"o":"m 350 356 l 224 712 l 462 712 l 519 549 l 618 661 q 733 712 665 712 l 903 712 l 848 509 l 781 509 q 661 441 722 509 l 587 357 l 712 0 l 475 0 l 418 163 l 319 51 q 203 0 271 0 l 34 0 l 88 203 l 156 203 q 276 272 214 203 l 350 356 z "},"y":{"ha":746,"x_min":111,"x_max":869,"o":"m 441 0 l 254 0 q 137 55 177 0 q 111 136 111 90 q 118 186 111 160 l 258 712 l 496 712 l 378 271 q 375 254 375 262 q 385 224 375 237 q 427 203 399 203 l 495 203 l 631 712 l 869 712 l 656 -85 q 566 -217 635 -162 q 419 -271 496 -271 l 131 -271 l 185 -68 l 355 -68 q 408 -48 382 -68 q 441 0 433 -28 z "},"z":{"ha":746,"x_min":68,"x_max":869,"o":"m 543 509 l 204 509 l 258 712 l 869 712 l 806 475 l 393 203 l 732 203 l 678 0 l 68 0 l 132 237 l 543 509 z "},"{":{"ha":610,"x_min":168,"x_max":806,"o":"m 507 373 l 461 203 q 458 186 458 194 q 469 156 458 169 q 511 136 484 136 l 579 136 l 524 -68 l 338 -68 q 220 -13 260 -68 q 194 68 194 22 q 201 119 194 92 l 252 305 q 254 323 254 315 q 244 353 254 340 q 201 373 229 373 l 168 373 l 222 576 l 256 576 q 310 596 284 576 q 342 644 335 616 l 383 797 q 473 929 404 874 q 620 983 543 983 l 806 983 l 751 780 l 684 780 q 630 760 656 780 q 597 712 605 740 l 562 576 q 467 475 545 513 q 511 401 511 446 q 507 373 511 388 z "},"|":{"ha":373,"x_min":50,"x_max":569,"o":"m 287 -68 l 50 -68 l 332 983 l 569 983 l 287 -68 z "},"}":{"ha":610,"x_min":50,"x_max":697,"o":"m 303 373 q 399 475 321 437 q 354 549 354 504 q 358 576 354 562 l 394 712 q 397 730 397 722 q 387 760 397 747 q 345 780 372 780 l 277 780 l 332 983 l 518 983 q 635 929 595 983 q 661 846 661 892 q 654 797 661 823 l 614 644 q 611 627 611 635 q 621 597 611 610 q 663 576 635 576 l 697 576 l 642 373 l 608 373 q 555 353 581 373 q 523 305 530 333 l 473 119 q 382 -13 452 41 q 236 -68 313 -68 l 50 -68 l 104 136 l 172 136 q 225 156 200 136 q 258 203 250 176 l 303 373 z "},"~":{"ha":746,"x_min":349,"x_max":987,"o":"m 522 1187 q 598 1221 564 1221 q 737 1170 632 1221 l 802 1221 l 987 1153 l 815 1017 q 739 983 772 983 q 600 1034 705 983 l 535 983 l 349 1051 l 522 1187 z "},"¡":{"ha":373,"x_min":68,"x_max":551,"o":"m 496 712 l 258 712 l 313 916 l 551 916 l 496 712 m 478 644 l 305 0 l 68 0 l 241 644 l 478 644 z "},"¢":{"ha":678,"x_min":129,"x_max":801,"o":"m 493 68 l 475 0 l 237 0 l 256 68 q 155 123 191 74 q 129 205 129 159 q 136 254 129 229 l 209 526 q 299 658 229 603 q 428 711 360 706 l 446 780 l 684 780 l 665 712 l 801 712 l 747 509 l 509 509 q 456 489 481 509 q 423 441 431 469 l 396 339 q 393 321 393 330 q 404 292 393 304 q 446 271 418 271 l 683 271 l 629 68 l 493 68 z "},"£":{"ha":678,"x_min":68,"x_max":788,"o":"m 190 203 l 235 373 l 168 373 l 222 576 l 290 576 l 331 729 q 421 861 352 806 q 568 916 490 916 l 788 916 l 733 712 l 631 712 q 578 692 604 712 q 546 644 553 672 l 528 576 l 697 576 l 642 373 l 473 373 l 427 203 l 665 203 l 610 0 l 68 0 l 122 203 l 190 203 z "},"¤":{"ha":746,"x_min":34,"x_max":958,"o":"m 418 424 q 416 406 416 414 q 426 376 416 389 q 469 356 441 356 q 522 376 496 356 q 554 424 547 396 l 572 492 q 575 509 575 501 q 566 540 575 526 q 523 559 551 559 q 470 539 495 559 q 437 492 444 519 l 418 424 m 408 153 l 361 85 q 203 0 305 0 l 34 0 l 88 203 l 173 203 q 180 204 176 203 q 178 208 179 205 q 151 289 151 243 q 159 339 151 313 l 222 576 q 313 709 243 654 q 340 728 326 719 l 313 916 l 551 916 l 571 763 l 583 763 l 630 831 q 788 916 686 916 l 958 916 l 903 712 l 818 712 q 811 711 814 712 q 814 709 812 710 q 840 627 840 673 q 833 576 840 603 l 769 339 q 680 208 748 262 q 652 188 666 197 l 678 0 l 441 0 l 420 153 l 408 153 z "},"¥":{"ha":746,"x_min":154,"x_max":924,"o":"m 510 68 l 492 0 l 254 0 l 273 68 l 154 68 l 208 271 l 327 271 l 345 339 l 227 339 l 281 543 l 292 543 q 274 564 282 551 q 247 645 247 600 q 254 695 247 669 l 313 916 l 551 916 l 514 780 q 511 762 511 770 q 522 732 511 745 q 564 712 536 712 q 617 732 591 712 q 650 780 642 752 l 686 916 l 924 916 l 865 695 q 775 564 844 618 q 745 543 760 551 l 755 543 l 701 339 l 583 339 l 564 271 l 683 271 l 629 68 l 510 68 z "},"¦":{"ha":373,"x_min":50,"x_max":569,"o":"m 414 407 l 287 -68 l 50 -68 l 177 407 l 414 407 m 213 543 l 332 983 l 569 983 l 450 543 l 213 543 z "},"§":{"ha":746,"x_min":50,"x_max":840,"o":"m 418 424 q 416 406 416 414 q 426 376 416 389 q 469 356 441 356 q 522 376 496 356 q 554 424 547 396 l 572 492 q 575 509 575 501 q 566 540 575 526 q 523 559 551 559 q 470 539 495 559 q 437 492 444 519 l 418 424 m 764 323 q 760 305 762 315 l 732 203 q 602 12 703 91 q 389 -68 501 -68 l 50 -68 l 104 136 l 410 136 q 458 153 435 136 l 295 153 q 178 208 218 153 q 151 288 151 243 q 159 339 151 313 l 222 576 q 233 607 227 592 q 241 644 235 625 l 258 712 q 390 904 289 825 q 603 983 490 983 l 806 983 l 751 780 l 582 780 q 532 763 556 780 l 696 763 q 813 709 773 763 q 840 626 840 672 q 833 576 840 602 l 769 339 q 764 323 767 332 z "},"¨":{"ha":678,"x_min":340,"x_max":937,"o":"m 700 1221 l 937 1221 l 883 1017 l 646 1017 l 700 1221 m 395 1221 l 632 1221 l 578 1017 l 340 1017 l 395 1221 z "},"©":{"ha":610,"x_min":244,"x_max":747,"o":"m 469 610 l 587 610 l 560 509 l 382 509 q 324 536 344 509 q 311 577 311 554 q 314 602 311 589 l 373 823 q 418 888 383 861 q 492 916 453 916 l 669 916 l 642 814 l 524 814 q 497 804 510 814 q 480 780 484 794 l 444 644 q 443 635 443 640 q 448 621 443 627 q 469 610 455 610 m 569 983 q 404 904 485 983 q 292 712 323 825 q 279 620 279 663 q 301 520 279 565 q 423 441 339 441 q 588 520 507 441 q 699 712 669 600 q 713 806 713 762 q 692 904 713 860 q 569 983 653 983 m 578 1017 q 722 928 676 1017 q 747 813 747 876 q 733 712 747 766 q 606 496 700 586 q 414 407 513 407 q 271 496 316 407 q 244 612 244 548 q 258 712 244 659 q 386 928 292 838 q 578 1017 479 1017 z "},"ª":{"ha":1119,"x_min":0,"x_max":1017,"o":"m 136 0 q 0 136 0 0 l 0 882 q 136 1017 0 1017 l 882 1017 q 1017 882 1017 1017 l 1017 136 q 882 0 1017 0 l 136 0 m 882 17 q 1000 136 1000 17 l 1000 882 q 882 1000 1000 1000 l 136 1000 q 17 882 18 1000 l 17 136 q 136 17 18 17 l 882 17 z "},"«":{"ha":1017,"x_min":204,"x_max":1158,"o":"m 204 509 l 548 780 l 819 780 l 475 509 l 674 237 l 403 237 l 204 509 m 543 509 l 887 780 l 1158 780 l 814 509 l 1013 237 l 742 237 l 543 509 z "},"¬":{"ha":1119,"x_min":0,"x_max":1017,"o":"m 136 0 q 0 136 0 0 l 0 882 q 136 1017 0 1017 l 882 1017 q 1017 882 1017 1017 l 1017 136 q 882 0 1017 0 l 136 0 m 882 17 q 1000 136 1000 17 l 1000 882 q 882 1000 1000 1000 l 136 1000 q 17 882 18 1000 l 17 136 q 136 17 18 17 l 882 17 z "},"®":{"ha":746,"x_min":244,"x_max":747,"o":"m 600 532 q 699 712 671 608 q 713 806 713 762 q 692 904 713 860 q 569 983 653 983 q 416 916 491 983 l 610 916 q 669 888 649 916 q 682 848 682 871 q 678 823 682 836 l 653 729 q 606 678 644 697 q 628 641 628 663 q 626 627 628 634 l 600 532 m 391 892 q 292 712 320 816 q 279 619 279 663 q 295 532 279 572 l 357 763 l 543 763 l 548 780 q 549 789 549 785 q 545 804 549 798 q 524 814 538 814 l 371 814 l 391 892 m 307 509 q 423 441 345 441 q 576 509 501 441 l 475 509 l 507 627 q 509 636 509 632 q 504 652 509 645 q 482 661 496 661 l 448 661 l 408 509 l 307 509 m 722 928 q 747 813 747 876 q 733 712 747 766 q 606 496 700 586 q 414 407 513 407 q 271 496 316 407 q 244 612 244 548 q 258 712 244 659 q 386 928 292 838 q 578 1017 479 1017 q 722 928 676 1017 z "},"¯":{"ha":1119,"x_min":0,"x_max":1017,"o":"m 136 0 q 0 136 0 0 l 0 882 q 136 1017 0 1017 l 882 1017 q 1017 882 1017 1017 l 1017 136 q 882 0 1017 0 l 136 0 m 882 17 q 1000 136 1000 17 l 1000 882 q 882 1000 1000 1000 l 136 1000 q 17 882 18 1000 l 17 136 q 136 17 18 17 l 882 17 z "},"°":{"ha":1119,"x_min":0,"x_max":1017,"o":"m 136 0 q 0 136 0 0 l 0 882 q 136 1017 0 1017 l 882 1017 q 1017 882 1017 1017 l 1017 136 q 882 0 1017 0 l 136 0 m 882 17 q 1000 136 1000 17 l 1000 882 q 882 1000 1000 1000 l 136 1000 q 17 882 18 1000 l 17 136 q 136 17 18 17 l 882 17 z "},"±":{"ha":1119,"x_min":0,"x_max":1017,"o":"m 136 0 q 0 136 0 0 l 0 882 q 136 1017 0 1017 l 882 1017 q 1017 882 1017 1017 l 1017 136 q 882 0 1017 0 l 136 0 m 882 17 q 1000 136 1000 17 l 1000 882 q 882 1000 1000 1000 l 136 1000 q 17 882 18 1000 l 17 136 q 136 17 18 17 l 882 17 z "},"²":{"ha":1119,"x_min":0,"x_max":1017,"o":"m 136 0 q 0 136 0 0 l 0 882 q 136 1017 0 1017 l 882 1017 q 1017 882 1017 1017 l 1017 136 q 882 0 1017 0 l 136 0 m 882 17 q 1000 136 1000 17 l 1000 882 q 882 1000 1000 1000 l 136 1000 q 17 882 18 1000 l 17 136 q 136 17 18 17 l 882 17 z "},"³":{"ha":1119,"x_min":0,"x_max":1017,"o":"m 136 0 q 0 136 0 0 l 0 882 q 136 1017 0 1017 l 882 1017 q 1017 882 1017 1017 l 1017 136 q 882 0 1017 0 l 136 0 m 882 17 q 1000 136 1000 17 l 1000 882 q 882 1000 1000 1000 l 136 1000 q 17 882 18 1000 l 17 136 q 136 17 18 17 l 882 17 z "},"´":{"ha":610,"x_min":332,"x_max":869,"o":"m 501 983 l 332 983 l 530 1221 l 869 1221 l 501 983 z "},"µ":{"ha":746,"x_min":-5,"x_max":869,"o":"m 378 271 q 375 254 375 262 q 385 224 375 237 q 427 203 399 203 l 495 203 l 631 712 l 869 712 l 678 0 l 305 0 l 233 -271 l -5 -271 l 258 712 l 496 712 l 378 271 z "},"¶":{"ha":1119,"x_min":0,"x_max":1017,"o":"m 136 0 q 0 136 0 0 l 0 882 q 136 1017 0 1017 l 882 1017 q 1017 882 1017 1017 l 1017 136 q 882 0 1017 0 l 136 0 m 882 17 q 1000 136 1000 17 l 1000 882 q 882 1000 1000 1000 l 136 1000 q 17 882 18 1000 l 17 136 q 136 17 18 17 l 882 17 z "},"·":{"ha":373,"x_min":168,"x_max":460,"o":"m 222 576 l 460 576 l 405 373 l 168 373 l 222 576 z "},"¸":{"ha":509,"x_min":-5,"x_max":458,"o":"m 221 68 l 458 68 l 422 -68 q 165 -271 368 -271 l -5 -271 l 48 -68 l 117 -68 q 203 0 185 -68 l 221 68 z "},"¹":{"ha":1119,"x_min":0,"x_max":1017,"o":"m 136 0 q 0 136 0 0 l 0 882 q 136 1017 0 1017 l 882 1017 q 1017 882 1017 1017 l 1017 136 q 882 0 1017 0 l 136 0 m 882 17 q 1000 136 1000 17 l 1000 882 q 882 1000 1000 1000 l 136 1000 q 17 882 18 1000 l 17 136 q 136 17 18 17 l 882 17 z "},"º":{"ha":1119,"x_min":0,"x_max":1017,"o":"m 136 0 q 0 136 0 0 l 0 882 q 136 1017 0 1017 l 882 1017 q 1017 882 1017 1017 l 1017 136 q 882 0 1017 0 l 136 0 m 882 17 q 1000 136 1000 17 l 1000 882 q 882 1000 1000 1000 l 136 1000 q 17 882 18 1000 l 17 136 q 136 17 18 17 l 882 17 z "},"»":{"ha":1017,"x_min":132,"x_max":1086,"o":"m 742 237 l 471 237 l 814 509 l 616 780 l 887 780 l 1086 509 l 742 237 m 403 237 l 132 237 l 475 509 l 277 780 l 548 780 l 747 509 l 403 237 z "},"¼":{"ha":1119,"x_min":0,"x_max":1017,"o":"m 136 0 q 0 136 0 0 l 0 882 q 136 1017 0 1017 l 882 1017 q 1017 882 1017 1017 l 1017 136 q 882 0 1017 0 l 136 0 m 882 17 q 1000 136 1000 17 l 1000 882 q 882 1000 1000 1000 l 136 1000 q 17 882 18 1000 l 17 136 q 136 17 18 17 l 882 17 z "},"½":{"ha":1119,"x_min":0,"x_max":1017,"o":"m 136 0 q 0 136 0 0 l 0 882 q 136 1017 0 1017 l 882 1017 q 1017 882 1017 1017 l 1017 136 q 882 0 1017 0 l 136 0 m 882 17 q 1000 136 1000 17 l 1000 882 q 882 1000 1000 1000 l 136 1000 q 17 882 18 1000 l 17 136 q 136 17 18 17 l 882 17 z "},"¾":{"ha":1119,"x_min":0,"x_max":1017,"o":"m 136 0 q 0 136 0 0 l 0 882 q 136 1017 0 1017 l 882 1017 q 1017 882 1017 1017 l 1017 136 q 882 0 1017 0 l 136 0 m 882 17 q 1000 136 1000 17 l 1000 882 q 882 1000 1000 1000 l 136 1000 q 17 882 18 1000 l 17 136 q 136 17 18 17 l 882 17 z "},"¿":{"ha":746,"x_min":130,"x_max":856,"o":"m 783 644 l 755 543 q 464 339 701 339 q 411 319 436 339 q 378 271 385 299 q 375 254 375 262 q 385 224 375 237 q 427 203 399 203 l 732 203 l 678 0 l 339 0 q 169 79 227 0 q 130 199 130 132 q 140 271 130 233 q 271 463 171 384 q 484 543 372 543 q 528 576 518 543 l 546 644 l 783 644 m 564 712 l 618 916 l 856 916 l 801 712 l 564 712 z "},"À":{"ha":814,"x_min":34,"x_max":908,"o":"m 551 203 l 564 712 l 258 712 l 313 916 l 720 916 q 817 840 817 916 q 816 831 817 836 l 780 0 l 34 0 l 317 576 l 554 576 l 371 203 l 551 203 m 496 1221 l 836 1221 l 908 983 l 739 983 l 496 1221 z "},"Á":{"ha":814,"x_min":34,"x_max":971,"o":"m 551 203 l 564 712 l 258 712 l 313 916 l 720 916 q 817 840 817 916 q 816 831 817 836 l 780 0 l 34 0 l 317 576 l 554 576 l 371 203 l 551 203 m 603 983 l 433 983 l 632 1221 l 971 1221 l 603 983 z "},"Â":{"ha":814,"x_min":34,"x_max":942,"o":"m 551 203 l 564 712 l 258 712 l 313 916 l 720 916 q 817 840 817 916 q 816 831 817 836 l 780 0 l 34 0 l 317 576 l 554 576 l 371 203 l 551 203 m 686 1043 l 637 983 l 399 983 l 632 1221 l 836 1221 l 942 983 l 705 983 l 686 1043 z "},"Ã":{"ha":814,"x_min":34,"x_max":1021,"o":"m 551 203 l 564 712 l 258 712 l 313 916 l 720 916 q 817 840 817 916 q 816 831 817 836 l 780 0 l 34 0 l 317 576 l 554 576 l 371 203 l 551 203 m 555 1187 q 632 1221 598 1221 q 771 1170 666 1221 l 836 1221 l 1021 1153 l 849 1017 q 772 983 806 983 q 633 1034 739 983 l 569 983 l 383 1051 l 555 1187 z "},"Ä":{"ha":814,"x_min":34,"x_max":1005,"o":"m 551 203 l 564 712 l 258 712 l 313 916 l 720 916 q 817 840 817 916 q 816 831 817 836 l 780 0 l 34 0 l 317 576 l 554 576 l 371 203 l 551 203 m 768 1221 l 1005 1221 l 951 1017 l 713 1017 l 768 1221 m 463 1221 l 700 1221 l 646 1017 l 408 1017 l 463 1221 z "},"Å":{"ha":814,"x_min":34,"x_max":842,"o":"m 551 203 l 564 712 l 258 712 l 313 916 l 720 916 q 817 840 817 916 q 816 831 817 836 l 780 0 l 34 0 l 317 576 l 554 576 l 371 203 l 551 203 m 671 983 q 584 1018 614 983 q 562 1074 562 1042 q 566 1102 562 1087 q 629 1186 580 1151 q 734 1221 677 1221 q 821 1186 790 1221 q 842 1131 842 1162 q 838 1102 842 1117 q 776 1018 825 1053 q 671 983 727 983 z "},"Æ":{"ha":1119,"x_min":34,"x_max":1297,"o":"m 1297 916 l 1242 712 l 937 712 l 901 576 l 1138 576 l 1083 373 l 846 373 l 800 203 l 1105 203 l 1051 0 l 34 0 l 317 576 l 554 576 l 371 203 l 551 203 l 564 712 l 258 712 l 313 916 l 1297 916 z "},"Ç":{"ha":678,"x_min":98,"x_max":856,"o":"m 307 0 l 254 0 q 137 55 177 0 q 111 136 111 90 q 118 186 111 160 l 263 729 q 353 861 284 806 q 500 916 422 916 l 856 916 l 801 712 l 564 712 q 511 692 536 712 q 478 644 486 672 l 378 271 q 375 254 375 262 q 385 224 375 237 q 427 203 399 203 l 665 203 l 610 0 l 544 0 l 526 -68 q 268 -271 471 -271 l 98 -271 l 151 -68 l 220 -68 q 307 0 288 -68 z "},"È":{"ha":678,"x_min":68,"x_max":856,"o":"m 258 712 l 313 916 l 856 916 l 801 712 l 258 712 m 222 576 l 697 576 l 642 373 l 405 373 l 359 203 l 665 203 l 610 0 l 68 0 l 222 576 m 429 1221 l 768 1221 l 840 983 l 671 983 l 429 1221 z "},"É":{"ha":678,"x_min":68,"x_max":903,"o":"m 258 712 l 313 916 l 856 916 l 801 712 l 258 712 m 222 576 l 697 576 l 642 373 l 405 373 l 359 203 l 665 203 l 610 0 l 68 0 l 222 576 m 535 983 l 366 983 l 564 1221 l 903 1221 l 535 983 z "},"Ê":{"ha":678,"x_min":68,"x_max":874,"o":"m 258 712 l 313 916 l 856 916 l 801 712 l 258 712 m 222 576 l 697 576 l 642 373 l 405 373 l 359 203 l 665 203 l 610 0 l 68 0 l 222 576 m 618 1043 l 569 983 l 332 983 l 564 1221 l 768 1221 l 874 983 l 637 983 l 618 1043 z "},"Ë":{"ha":678,"x_min":68,"x_max":937,"o":"m 258 712 l 313 916 l 856 916 l 801 712 l 258 712 m 222 576 l 697 576 l 642 373 l 405 373 l 359 203 l 665 203 l 610 0 l 68 0 l 222 576 m 700 1221 l 937 1221 l 883 1017 l 646 1017 l 700 1221 m 395 1221 l 632 1221 l 578 1017 l 340 1017 l 395 1221 z "},"Ì":{"ha":373,"x_min":68,"x_max":688,"o":"m 551 916 l 305 0 l 68 0 l 313 916 l 551 916 m 276 1221 l 615 1221 l 688 983 l 518 983 l 276 1221 z "},"Í":{"ha":373,"x_min":68,"x_max":751,"o":"m 551 916 l 305 0 l 68 0 l 313 916 l 551 916 m 382 983 l 213 983 l 412 1221 l 751 1221 l 382 983 z "},"Î":{"ha":373,"x_min":68,"x_max":722,"o":"m 551 916 l 305 0 l 68 0 l 313 916 l 551 916 m 466 1043 l 416 983 l 179 983 l 412 1221 l 615 1221 l 722 983 l 484 983 l 466 1043 z "},"Ï":{"ha":373,"x_min":68,"x_max":785,"o":"m 551 916 l 305 0 l 68 0 l 313 916 l 551 916 m 547 1221 l 785 1221 l 730 1017 l 493 1017 l 547 1221 m 242 1221 l 479 1221 l 425 1017 l 188 1017 l 242 1221 z "},"Ð":{"ha":814,"x_min":136,"x_max":949,"o":"m 473 373 l 427 203 l 495 203 q 548 223 523 203 q 581 271 574 243 l 682 644 q 684 662 684 654 q 674 692 684 679 q 631 712 659 712 l 326 712 l 381 916 l 805 916 q 922 861 882 916 q 949 780 949 825 q 941 729 949 755 l 796 186 q 706 55 775 109 q 559 0 637 0 l 136 0 l 235 373 l 168 373 l 222 576 l 595 576 l 541 373 l 473 373 z "},"Ñ":{"ha":746,"x_min":68,"x_max":987,"o":"m 614 644 q 616 662 616 654 q 606 692 616 679 q 564 712 591 712 l 258 712 l 313 916 l 737 916 q 854 861 814 916 q 881 780 881 825 q 873 729 881 755 l 678 0 l 441 0 l 614 644 m 305 0 l 68 0 l 222 576 l 460 576 l 305 0 m 522 1187 q 598 1221 564 1221 q 737 1170 632 1221 l 802 1221 l 987 1153 l 815 1017 q 739 983 772 983 q 600 1034 705 983 l 535 983 l 349 1051 l 522 1187 z "},"Ò":{"ha":746,"x_min":111,"x_max":881,"o":"m 254 0 q 137 55 177 0 q 111 136 111 90 q 118 186 111 160 l 263 729 q 353 861 284 806 q 500 916 422 916 l 737 916 q 854 861 814 916 q 881 780 881 825 q 873 729 881 755 l 728 186 q 638 55 707 109 q 492 0 569 0 l 254 0 m 378 271 q 375 254 375 262 q 385 224 375 237 q 427 203 399 203 q 480 223 455 203 q 513 271 506 243 l 614 644 q 616 662 616 654 q 606 692 616 679 q 564 712 591 712 q 511 692 536 712 q 478 644 486 672 l 378 271 m 463 1221 l 802 1221 l 874 983 l 705 983 l 463 1221 z "},"Ó":{"ha":746,"x_min":111,"x_max":937,"o":"m 254 0 q 137 55 177 0 q 111 136 111 90 q 118 186 111 160 l 263 729 q 353 861 284 806 q 500 916 422 916 l 737 916 q 854 861 814 916 q 881 780 881 825 q 873 729 881 755 l 728 186 q 638 55 707 109 q 492 0 569 0 l 254 0 m 378 271 q 375 254 375 262 q 385 224 375 237 q 427 203 399 203 q 480 223 455 203 q 513 271 506 243 l 614 644 q 616 662 616 654 q 606 692 616 679 q 564 712 591 712 q 511 692 536 712 q 478 644 486 672 l 378 271 m 569 983 l 399 983 l 598 1221 l 937 1221 l 569 983 z "},"Ô":{"ha":746,"x_min":111,"x_max":908,"o":"m 254 0 q 137 55 177 0 q 111 136 111 90 q 118 186 111 160 l 263 729 q 353 861 284 806 q 500 916 422 916 l 737 916 q 854 861 814 916 q 881 780 881 825 q 873 729 881 755 l 728 186 q 638 55 707 109 q 492 0 569 0 l 254 0 m 378 271 q 375 254 375 262 q 385 224 375 237 q 427 203 399 203 q 480 223 455 203 q 513 271 506 243 l 614 644 q 616 662 616 654 q 606 692 616 679 q 564 712 591 712 q 511 692 536 712 q 478 644 486 672 l 378 271 m 652 1043 l 603 983 l 366 983 l 598 1221 l 802 1221 l 908 983 l 671 983 l 652 1043 z "},"Õ":{"ha":746,"x_min":111,"x_max":987,"o":"m 254 0 q 137 55 177 0 q 111 136 111 90 q 118 186 111 160 l 263 729 q 353 861 284 806 q 500 916 422 916 l 737 916 q 854 861 814 916 q 881 780 881 825 q 873 729 881 755 l 728 186 q 638 55 707 109 q 492 0 569 0 l 254 0 m 378 271 q 375 254 375 262 q 385 224 375 237 q 427 203 399 203 q 480 223 455 203 q 513 271 506 243 l 614 644 q 616 662 616 654 q 606 692 616 679 q 564 712 591 712 q 511 692 536 712 q 478 644 486 672 l 378 271 m 522 1187 q 598 1221 564 1221 q 737 1170 632 1221 l 802 1221 l 987 1153 l 815 1017 q 739 983 772 983 q 600 1034 705 983 l 535 983 l 349 1051 l 522 1187 z "},"Ö":{"ha":746,"x_min":111,"x_max":971,"o":"m 254 0 q 137 55 177 0 q 111 136 111 90 q 118 186 111 160 l 263 729 q 353 861 284 806 q 500 916 422 916 l 737 916 q 854 861 814 916 q 881 780 881 825 q 873 729 881 755 l 728 186 q 638 55 707 109 q 492 0 569 0 l 254 0 m 378 271 q 375 254 375 262 q 385 224 375 237 q 427 203 399 203 q 480 223 455 203 q 513 271 506 243 l 614 644 q 616 662 616 654 q 606 692 616 679 q 564 712 591 712 q 511 692 536 712 q 478 644 486 672 l 378 271 m 734 1221 l 971 1221 l 917 1017 l 680 1017 l 734 1221 m 429 1221 l 666 1221 l 612 1017 l 374 1017 l 429 1221 z "},"×":{"ha":882,"x_min":95,"x_max":1032,"o":"m 433 446 l 286 814 l 557 814 l 626 642 l 795 814 l 1032 814 l 699 458 l 841 102 l 570 102 l 509 254 l 366 102 l 95 102 l 433 446 z "},"Ø":{"ha":746,"x_min":111,"x_max":881,"o":"m 608 689 q 607 692 608 690 q 564 712 591 712 q 511 692 536 712 q 478 644 486 672 l 446 527 l 608 689 m 382 227 q 385 224 384 225 q 427 203 399 203 q 480 223 455 203 q 513 271 506 243 l 545 389 l 382 227 m 728 186 q 638 55 707 109 q 492 0 569 0 l 254 0 q 137 55 177 0 q 111 136 111 90 q 118 186 111 160 l 263 729 q 353 861 284 806 q 500 916 422 916 l 737 916 q 854 861 814 916 q 881 780 881 825 q 873 729 881 755 l 728 186 z "},"Ù":{"ha":746,"x_min":111,"x_max":924,"o":"m 686 916 l 924 916 l 728 186 q 638 55 707 109 q 492 0 569 0 l 254 0 q 137 55 177 0 q 111 136 111 90 q 118 186 111 160 l 313 916 l 551 916 l 378 271 q 375 254 375 262 q 385 224 375 237 q 427 203 399 203 q 480 223 455 203 q 513 271 506 243 l 686 916 m 463 1221 l 802 1221 l 874 983 l 705 983 l 463 1221 z "},"Ú":{"ha":746,"x_min":111,"x_max":937,"o":"m 686 916 l 924 916 l 728 186 q 638 55 707 109 q 492 0 569 0 l 254 0 q 137 55 177 0 q 111 136 111 90 q 118 186 111 160 l 313 916 l 551 916 l 378 271 q 375 254 375 262 q 385 224 375 237 q 427 203 399 203 q 480 223 455 203 q 513 271 506 243 l 686 916 m 569 983 l 399 983 l 598 1221 l 937 1221 l 569 983 z "},"Û":{"ha":746,"x_min":111,"x_max":924,"o":"m 686 916 l 924 916 l 728 186 q 638 55 707 109 q 492 0 569 0 l 254 0 q 137 55 177 0 q 111 136 111 90 q 118 186 111 160 l 313 916 l 551 916 l 378 271 q 375 254 375 262 q 385 224 375 237 q 427 203 399 203 q 480 223 455 203 q 513 271 506 243 l 686 916 m 652 1043 l 603 983 l 366 983 l 598 1221 l 802 1221 l 908 983 l 671 983 l 652 1043 z "},"Ü":{"ha":746,"x_min":111,"x_max":971,"o":"m 686 916 l 924 916 l 728 186 q 638 55 707 109 q 492 0 569 0 l 254 0 q 137 55 177 0 q 111 136 111 90 q 118 186 111 160 l 313 916 l 551 916 l 378 271 q 375 254 375 262 q 385 224 375 237 q 427 203 399 203 q 480 223 455 203 q 513 271 506 243 l 686 916 m 734 1221 l 971 1221 l 917 1017 l 680 1017 l 734 1221 m 429 1221 l 666 1221 l 612 1017 l 374 1017 l 429 1221 z "},"Ý":{"ha":746,"x_min":211,"x_max":937,"o":"m 528 576 q 581 596 555 576 q 614 644 606 616 l 686 916 l 924 916 l 828 559 q 738 428 808 482 q 591 373 669 373 l 492 0 l 254 0 l 354 373 q 237 428 277 373 q 211 510 211 464 q 218 559 211 533 l 313 916 l 551 916 l 478 644 q 475 627 475 635 q 486 597 475 610 q 528 576 500 576 m 569 983 l 399 983 l 598 1221 l 937 1221 l 569 983 z "},"Þ":{"ha":746,"x_min":68,"x_max":836,"o":"m 313 916 l 551 916 l 505 746 l 692 746 q 809 692 769 746 q 836 610 836 656 q 828 559 836 586 l 783 390 q 693 258 762 313 q 546 203 623 203 l 359 203 l 305 0 l 68 0 l 313 916 m 450 543 l 414 407 l 482 407 q 535 427 510 407 q 568 475 561 447 q 571 492 571 484 q 561 523 571 509 q 518 543 546 543 l 450 543 z "},"ß":{"ha":746,"x_min":68,"x_max":881,"o":"m 478 644 l 305 0 l 68 0 l 263 729 q 353 861 284 806 q 500 916 422 916 l 737 916 q 854 861 814 916 q 881 780 881 825 q 873 729 881 755 l 833 576 q 738 475 816 513 q 782 401 782 446 q 778 373 782 388 l 728 186 q 638 55 707 109 q 492 0 569 0 l 339 0 l 393 203 l 427 203 q 480 223 455 203 q 513 271 506 243 l 523 305 q 526 323 526 315 q 515 353 526 340 q 473 373 500 373 l 439 373 l 493 576 l 528 576 q 581 596 555 576 q 614 644 606 616 q 616 662 616 654 q 606 692 616 679 q 564 712 591 712 q 511 692 536 712 q 478 644 486 672 z "},"à":{"ha":746,"x_min":123,"x_max":826,"o":"m 412 271 q 385 261 397 271 q 369 237 372 252 q 368 228 368 232 q 372 214 368 220 q 393 203 379 203 l 495 203 l 513 271 l 412 271 m 543 509 l 340 509 l 394 711 l 682 712 q 800 658 760 712 q 826 575 826 621 q 819 526 826 551 l 678 0 l 305 0 q 156 70 207 0 q 123 174 123 115 q 132 237 123 203 q 246 405 158 336 q 433 475 334 475 l 568 475 q 570 484 570 479 q 565 499 570 492 q 543 509 557 509 m 408 1017 l 747 1017 l 819 780 l 650 780 l 408 1017 z "},"á":{"ha":746,"x_min":123,"x_max":883,"o":"m 412 271 q 385 261 397 271 q 369 237 372 252 q 368 228 368 232 q 372 214 368 220 q 393 203 379 203 l 495 203 l 513 271 l 412 271 m 543 509 l 340 509 l 394 711 l 682 712 q 800 658 760 712 q 826 575 826 621 q 819 526 826 551 l 678 0 l 305 0 q 156 70 207 0 q 123 174 123 115 q 132 237 123 203 q 246 405 158 336 q 433 475 334 475 l 568 475 q 570 484 570 479 q 565 499 570 492 q 543 509 557 509 m 514 780 l 345 780 l 544 1017 l 883 1017 l 514 780 z "},"â":{"ha":746,"x_min":123,"x_max":853,"o":"m 412 271 q 385 261 397 271 q 369 237 372 252 q 368 228 368 232 q 372 214 368 220 q 393 203 379 203 l 495 203 l 513 271 l 412 271 m 543 509 l 340 509 l 394 711 l 682 712 q 800 658 760 712 q 826 575 826 621 q 819 526 826 551 l 678 0 l 305 0 q 156 70 207 0 q 123 174 123 115 q 132 237 123 203 q 246 405 158 336 q 433 475 334 475 l 568 475 q 570 484 570 479 q 565 499 570 492 q 543 509 557 509 m 598 840 l 548 780 l 311 780 l 544 1017 l 747 1017 l 853 780 l 616 780 l 598 840 z "},"ã":{"ha":746,"x_min":123,"x_max":932,"o":"m 412 271 q 385 261 397 271 q 369 237 372 252 q 368 228 368 232 q 372 214 368 220 q 393 203 379 203 l 495 203 l 513 271 l 412 271 m 543 509 l 340 509 l 394 711 l 682 712 q 800 658 760 712 q 826 575 826 621 q 819 526 826 551 l 678 0 l 305 0 q 156 70 207 0 q 123 174 123 115 q 132 237 123 203 q 246 405 158 336 q 433 475 334 475 l 568 475 q 570 484 570 479 q 565 499 570 492 q 543 509 557 509 m 467 983 q 544 1017 510 1017 q 683 966 578 1017 l 747 1017 l 932 949 l 761 814 q 684 780 718 780 q 545 831 650 780 l 480 780 l 295 848 l 467 983 z "},"ä":{"ha":746,"x_min":123,"x_max":908,"o":"m 412 271 q 385 261 397 271 q 369 237 372 252 q 368 228 368 232 q 372 214 368 220 q 393 203 379 203 l 495 203 l 513 271 l 412 271 m 543 509 l 340 509 l 394 711 l 682 712 q 800 658 760 712 q 826 575 826 621 q 819 526 826 551 l 678 0 l 305 0 q 156 70 207 0 q 123 174 123 115 q 132 237 123 203 q 246 405 158 336 q 433 475 334 475 l 568 475 q 570 484 570 479 q 565 499 570 492 q 543 509 557 509 m 671 983 l 908 983 l 853 780 l 616 780 l 671 983 m 366 983 l 603 983 l 548 780 l 311 780 l 366 983 z "},"å":{"ha":746,"x_min":123,"x_max":826,"o":"m 412 271 q 385 261 397 271 q 369 237 372 252 q 368 228 368 232 q 372 214 368 220 q 393 203 379 203 l 495 203 l 513 271 l 412 271 m 543 509 l 340 509 l 394 712 l 682 712 q 800 658 760 712 q 826 575 826 621 q 819 526 826 551 l 678 0 l 305 0 q 156 70 207 0 q 123 174 123 115 q 132 237 123 203 q 246 405 158 336 q 433 475 334 475 l 568 475 q 570 484 570 479 q 565 499 570 492 q 543 509 557 509 m 582 780 q 495 814 526 780 q 474 869 474 838 q 478 899 474 884 q 540 982 491 947 q 646 1017 589 1017 q 732 983 702 1017 q 753 926 753 958 q 749 899 753 913 q 687 814 736 849 q 582 780 638 780 z "},"æ":{"ha":1119,"x_min":123,"x_max":1199,"o":"m 412 271 q 385 261 397 271 q 369 237 372 252 q 368 228 368 232 q 372 214 368 220 q 393 203 379 203 l 495 203 l 513 271 l 412 271 m 932 441 q 935 458 935 450 q 925 489 935 475 q 882 509 910 509 q 829 489 854 509 q 796 441 804 469 l 932 441 m 568 475 q 570 484 570 479 q 565 499 570 492 q 543 509 557 509 l 340 509 l 394 711 l 682 712 q 747 700 719 712 q 818 712 781 712 l 1055 712 q 1173 658 1133 712 q 1199 575 1199 621 q 1192 526 1199 551 l 1115 237 l 742 237 q 741 228 741 232 q 745 214 741 220 q 766 203 752 203 l 1038 203 l 983 0 l 305 0 q 156 70 207 0 q 123 174 123 115 q 132 237 123 203 q 246 405 158 336 q 433 475 334 475 l 568 475 z "},"ç":{"ha":678,"x_min":64,"x_max":801,"o":"m 273 0 l 254 0 q 137 55 177 0 q 111 136 111 90 q 118 186 111 160 l 209 526 q 298 657 229 603 q 445 712 368 712 l 801 712 l 747 509 l 509 509 q 456 489 481 509 q 423 441 431 469 l 378 271 q 375 254 375 262 q 385 224 375 237 q 427 203 399 203 l 665 203 l 610 0 l 510 0 l 492 -68 q 234 -271 437 -271 l 64 -271 l 117 -68 l 186 -68 q 273 0 254 -68 z "},"è":{"ha":746,"x_min":111,"x_max":826,"o":"m 559 441 q 562 458 562 450 q 552 489 562 475 q 509 509 537 509 q 456 489 481 509 q 423 441 431 469 l 559 441 m 393 203 l 665 203 l 610 0 l 254 0 q 137 55 177 0 q 111 136 111 90 q 118 186 111 160 l 209 526 q 298 657 229 603 q 445 712 368 712 l 682 712 q 800 658 760 712 q 826 575 826 621 q 819 526 826 551 l 742 237 l 369 237 q 368 228 368 232 q 372 214 368 220 q 393 203 379 203 m 408 1017 l 747 1017 l 819 780 l 650 780 l 408 1017 z "},"é":{"ha":746,"x_min":111,"x_max":883,"o":"m 559 441 q 562 458 562 450 q 552 489 562 475 q 509 509 537 509 q 456 489 481 509 q 423 441 431 469 l 559 441 m 393 203 l 665 203 l 610 0 l 254 0 q 137 55 177 0 q 111 136 111 90 q 118 186 111 160 l 209 526 q 298 657 229 603 q 445 712 368 712 l 682 712 q 800 658 760 712 q 826 575 826 621 q 819 526 826 551 l 742 237 l 369 237 q 368 228 368 232 q 372 214 368 220 q 393 203 379 203 m 514 780 l 345 780 l 544 1017 l 883 1017 l 514 780 z "},"ê":{"ha":746,"x_min":111,"x_max":853,"o":"m 559 441 q 562 458 562 450 q 552 489 562 475 q 509 509 537 509 q 456 489 481 509 q 423 441 431 469 l 559 441 m 393 203 l 665 203 l 610 0 l 254 0 q 137 55 177 0 q 111 136 111 90 q 118 186 111 160 l 209 526 q 298 657 229 603 q 445 712 368 712 l 682 712 q 800 658 760 712 q 826 575 826 621 q 819 526 826 551 l 742 237 l 369 237 q 368 228 368 232 q 372 214 368 220 q 393 203 379 203 m 598 840 l 548 780 l 311 780 l 544 1017 l 747 1017 l 853 780 l 616 780 l 598 840 z "},"ë":{"ha":746,"x_min":111,"x_max":908,"o":"m 559 441 q 562 458 562 450 q 552 489 562 475 q 509 509 537 509 q 456 489 481 509 q 423 441 431 469 l 559 441 m 393 203 l 665 203 l 610 0 l 254 0 q 137 55 177 0 q 111 136 111 90 q 118 186 111 160 l 209 526 q 298 657 229 603 q 445 712 368 712 l 682 712 q 800 658 760 712 q 826 575 826 621 q 819 526 826 551 l 742 237 l 369 237 q 368 228 368 232 q 372 214 368 220 q 393 203 379 203 m 671 983 l 908 983 l 853 780 l 616 780 l 671 983 m 366 983 l 603 983 l 548 780 l 311 780 l 366 983 z "},"ì":{"ha":373,"x_min":68,"x_max":633,"o":"m 496 712 l 305 0 l 68 0 l 258 712 l 496 712 m 222 1017 l 561 1017 l 633 780 l 463 780 l 222 1017 z "},"í":{"ha":373,"x_min":68,"x_max":696,"o":"m 496 712 l 305 0 l 68 0 l 258 712 l 496 712 m 328 780 l 158 780 l 357 1017 l 696 1017 l 328 780 z "},"î":{"ha":373,"x_min":68,"x_max":667,"o":"m 496 712 l 305 0 l 68 0 l 258 712 l 496 712 m 412 840 l 361 780 l 124 780 l 357 1017 l 561 1017 l 667 780 l 429 780 l 412 840 z "},"ï":{"ha":373,"x_min":68,"x_max":730,"o":"m 496 712 l 305 0 l 68 0 l 258 712 l 496 712 m 493 1017 l 730 1017 l 676 814 l 439 814 l 493 1017 m 188 1017 l 425 1017 l 371 814 l 134 814 l 188 1017 z "},"ð":{"ha":746,"x_min":111,"x_max":851,"o":"m 491 441 q 438 421 463 441 q 405 373 412 401 l 378 271 q 375 254 375 262 q 385 224 375 237 q 427 203 399 203 l 491 441 m 783 644 l 851 644 l 796 441 l 728 441 l 610 0 l 254 0 q 137 55 177 0 q 111 136 111 90 q 118 186 111 160 l 191 458 q 280 590 211 535 q 427 644 350 644 l 546 644 q 549 662 549 654 q 538 692 549 679 q 496 712 524 712 l 394 712 l 449 916 l 669 916 q 787 861 747 916 q 813 780 813 825 q 806 729 813 755 l 783 644 z "},"ñ":{"ha":746,"x_min":68,"x_max":932,"o":"m 305 0 l 68 0 l 258 712 l 682 712 q 800 658 760 712 q 826 575 826 621 q 819 526 826 551 l 678 0 l 441 0 l 559 441 q 562 458 562 450 q 552 489 562 475 q 509 509 537 509 l 441 509 l 305 0 m 467 983 q 544 1017 510 1017 q 683 966 578 1017 l 747 1017 l 932 949 l 761 814 q 684 780 718 780 q 545 831 650 780 l 480 780 l 295 848 l 467 983 z "},"ò":{"ha":746,"x_min":111,"x_max":826,"o":"m 254 0 q 137 55 177 0 q 111 136 111 90 q 118 186 111 160 l 209 526 q 298 657 229 603 q 445 712 368 712 l 682 712 q 800 658 760 712 q 826 575 826 621 q 819 526 826 551 l 728 186 q 638 55 707 109 q 492 0 569 0 l 254 0 m 378 271 q 375 254 375 262 q 385 224 375 237 q 427 203 399 203 q 480 223 455 203 q 513 271 506 243 l 559 441 q 562 458 562 450 q 552 489 562 475 q 509 509 537 509 q 456 489 481 509 q 423 441 431 469 l 378 271 m 408 1017 l 747 1017 l 819 780 l 650 780 l 408 1017 z "},"ó":{"ha":746,"x_min":111,"x_max":883,"o":"m 254 0 q 137 55 177 0 q 111 136 111 90 q 118 186 111 160 l 209 526 q 298 657 229 603 q 445 712 368 712 l 682 712 q 800 658 760 712 q 826 575 826 621 q 819 526 826 551 l 728 186 q 638 55 707 109 q 492 0 569 0 l 254 0 m 378 271 q 375 254 375 262 q 385 224 375 237 q 427 203 399 203 q 480 223 455 203 q 513 271 506 243 l 559 441 q 562 458 562 450 q 552 489 562 475 q 509 509 537 509 q 456 489 481 509 q 423 441 431 469 l 378 271 m 514 780 l 345 780 l 544 1017 l 883 1017 l 514 780 z "},"ô":{"ha":746,"x_min":111,"x_max":853,"o":"m 254 0 q 137 55 177 0 q 111 136 111 90 q 118 186 111 160 l 209 526 q 298 657 229 603 q 445 712 368 712 l 682 712 q 800 658 760 712 q 826 575 826 621 q 819 526 826 551 l 728 186 q 638 55 707 109 q 492 0 569 0 l 254 0 m 378 271 q 375 254 375 262 q 385 224 375 237 q 427 203 399 203 q 480 223 455 203 q 513 271 506 243 l 559 441 q 562 458 562 450 q 552 489 562 475 q 509 509 537 509 q 456 489 481 509 q 423 441 431 469 l 378 271 m 598 840 l 548 780 l 311 780 l 544 1017 l 747 1017 l 853 780 l 616 780 l 598 840 z "},"õ":{"ha":746,"x_min":111,"x_max":932,"o":"m 254 0 q 137 55 177 0 q 111 136 111 90 q 118 186 111 160 l 209 526 q 298 657 229 603 q 445 712 368 712 l 682 712 q 800 658 760 712 q 826 575 826 621 q 819 526 826 551 l 728 186 q 638 55 707 109 q 492 0 569 0 l 254 0 m 378 271 q 375 254 375 262 q 385 224 375 237 q 427 203 399 203 q 480 223 455 203 q 513 271 506 243 l 559 441 q 562 458 562 450 q 552 489 562 475 q 509 509 537 509 q 456 489 481 509 q 423 441 431 469 l 378 271 m 467 983 q 544 1017 510 1017 q 683 966 578 1017 l 747 1017 l 932 949 l 761 814 q 684 780 718 780 q 545 831 650 780 l 480 780 l 295 848 l 467 983 z "},"ö":{"ha":746,"x_min":111,"x_max":908,"o":"m 254 0 q 137 55 177 0 q 111 136 111 90 q 118 186 111 160 l 209 526 q 298 657 229 603 q 445 712 368 712 l 682 712 q 800 658 760 712 q 826 575 826 621 q 819 526 826 551 l 728 186 q 638 55 707 109 q 492 0 569 0 l 254 0 m 378 271 q 375 254 375 262 q 385 224 375 237 q 427 203 399 203 q 480 223 455 203 q 513 271 506 243 l 559 441 q 562 458 562 450 q 552 489 562 475 q 509 509 537 509 q 456 489 481 509 q 423 441 431 469 l 378 271 m 671 983 l 908 983 l 853 780 l 616 780 l 671 983 m 366 983 l 603 983 l 548 780 l 311 780 l 366 983 z "},"÷":{"ha":644,"x_min":91,"x_max":688,"o":"m 91 339 l 145 543 l 688 543 l 633 339 l 91 339 m 225 271 l 463 271 l 408 68 l 171 68 l 225 271 m 371 814 l 608 814 l 553 610 l 316 610 l 371 814 z "},"ø":{"ha":746,"x_min":111,"x_max":826,"o":"m 728 186 q 638 55 707 109 q 492 0 569 0 l 254 0 q 137 55 177 0 q 111 136 111 90 q 118 186 111 160 l 209 526 q 298 657 229 603 q 445 712 368 712 l 682 712 q 800 658 760 712 q 826 575 826 621 q 819 526 826 551 l 728 186 m 550 490 q 509 509 536 509 q 456 489 481 509 q 423 441 431 469 l 412 397 l 550 490 m 387 222 q 427 203 401 203 q 480 223 455 203 q 513 271 506 243 l 525 315 l 387 222 z "},"ù":{"ha":746,"x_min":111,"x_max":869,"o":"m 631 712 l 869 712 l 678 0 l 254 0 q 137 55 177 0 q 111 136 111 90 q 118 186 111 160 l 258 712 l 496 712 l 378 271 q 375 254 375 262 q 385 224 375 237 q 427 203 399 203 l 495 203 l 631 712 m 408 1017 l 747 1017 l 819 780 l 650 780 l 408 1017 z "},"ú":{"ha":746,"x_min":111,"x_max":883,"o":"m 631 712 l 869 712 l 678 0 l 254 0 q 137 55 177 0 q 111 136 111 90 q 118 186 111 160 l 258 712 l 496 712 l 378 271 q 375 254 375 262 q 385 224 375 237 q 427 203 399 203 l 495 203 l 631 712 m 514 780 l 345 780 l 544 1017 l 883 1017 l 514 780 z "},"û":{"ha":746,"x_min":111,"x_max":869,"o":"m 631 712 l 869 712 l 678 0 l 254 0 q 137 55 177 0 q 111 136 111 90 q 118 186 111 160 l 258 712 l 496 712 l 378 271 q 375 254 375 262 q 385 224 375 237 q 427 203 399 203 l 495 203 l 631 712 m 598 840 l 548 780 l 311 780 l 544 1017 l 747 1017 l 853 780 l 616 780 l 598 840 z "},"ü":{"ha":746,"x_min":111,"x_max":908,"o":"m 631 712 l 869 712 l 678 0 l 254 0 q 137 55 177 0 q 111 136 111 90 q 118 186 111 160 l 258 712 l 496 712 l 378 271 q 375 254 375 262 q 385 224 375 237 q 427 203 399 203 l 495 203 l 631 712 m 671 983 l 908 983 l 853 780 l 616 780 l 671 983 m 366 983 l 603 983 l 548 780 l 311 780 l 366 983 z "},"ý":{"ha":746,"x_min":111,"x_max":883,"o":"m 441 0 l 254 0 q 137 55 177 0 q 111 136 111 90 q 118 186 111 160 l 258 712 l 496 712 l 378 271 q 375 254 375 262 q 385 224 375 237 q 427 203 399 203 l 495 203 l 631 712 l 869 712 l 656 -85 q 566 -217 635 -162 q 419 -271 496 -271 l 131 -271 l 185 -68 l 355 -68 q 408 -48 382 -68 q 441 0 433 -28 m 514 780 l 345 780 l 544 1017 l 883 1017 l 514 780 z "},"þ":{"ha":746,"x_min":-5,"x_max":826,"o":"m 378 271 q 375 254 375 262 q 385 224 375 237 q 427 203 399 203 q 480 223 455 203 q 513 271 506 243 l 559 441 q 562 458 562 450 q 552 489 562 475 q 509 509 537 509 l 441 509 l 378 271 m 496 712 l 682 712 q 800 658 760 712 q 826 575 826 621 q 819 526 826 551 l 728 186 q 638 55 707 109 q 492 0 569 0 l 305 0 l 233 -271 l -5 -271 l 313 916 l 551 916 l 496 712 z "},"ÿ":{"ha":746,"x_min":111,"x_max":908,"o":"m 441 0 l 254 0 q 137 55 177 0 q 111 136 111 90 q 118 186 111 160 l 258 712 l 496 712 l 378 271 q 375 254 375 262 q 385 224 375 237 q 427 203 399 203 l 495 203 l 631 712 l 869 712 l 656 -85 q 566 -217 635 -162 q 419 -271 496 -271 l 131 -271 l 185 -68 l 355 -68 q 408 -48 382 -68 q 441 0 433 -28 m 671 983 l 908 983 l 853 780 l 616 780 l 671 983 m 366 983 l 603 983 l 548 780 l 311 780 l 366 983 z "},"ı":{"ha":373,"x_min":68,"x_max":496,"o":"m 496 712 l 305 0 l 68 0 l 258 712 l 496 712 z "},"ˆ":{"ha":678,"x_min":332,"x_max":874,"o":"m 618 1043 l 569 983 l 332 983 l 564 1221 l 768 1221 l 874 983 l 637 983 l 618 1043 z "},"ˇ":{"ha":678,"x_min":395,"x_max":937,"o":"m 700 1221 l 937 1221 l 705 983 l 501 983 l 395 1221 l 632 1221 l 650 1162 l 700 1221 z "},"ˉ":{"ha":452,"x_min":217,"x_max":590,"o":"m 217 810 l 240 895 l 590 895 l 567 810 l 217 810 z "},"˘":{"ha":498,"x_min":243,"x_max":641,"o":"m 245 915 l 279 915 l 279 911 q 311 842 279 865 q 418 819 345 819 q 537 842 492 819 q 606 915 582 865 l 641 915 q 541 778 604 825 q 395 732 478 732 q 274 779 312 732 q 243 881 243 816 q 245 915 243 897 z "},"˙":{"ha":339,"x_min":273,"x_max":564,"o":"m 327 1221 l 564 1221 l 510 1017 l 273 1017 l 327 1221 z "},"˚":{"ha":373,"x_min":291,"x_max":570,"o":"m 463 1221 q 549 1186 519 1221 q 570 1131 570 1162 q 566 1102 570 1117 q 505 1018 553 1053 q 399 983 456 983 q 313 1019 343 983 q 291 1074 291 1043 q 295 1102 291 1088 q 357 1186 309 1152 q 463 1221 406 1221 z "},"˛":{"ha":509,"x_min":37,"x_max":422,"o":"m 304 0 q 300 -26 300 -14 q 354 -68 300 -68 l 422 -68 l 368 -271 l 197 -271 q 37 -144 37 -271 q 48 -68 37 -111 l 85 68 l 323 68 l 304 0 z "},"˜":{"ha":746,"x_min":349,"x_max":987,"o":"m 522 1187 q 598 1221 564 1221 q 737 1170 632 1221 l 802 1221 l 987 1153 l 815 1017 q 739 983 772 983 q 600 1034 705 983 l 535 983 l 349 1051 l 522 1187 z "},"˝":{"ha":501,"x_min":196,"x_max":650,"o":"m 196 732 l 343 917 q 386 960 368 947 q 420 972 404 972 q 450 959 439 972 q 456 939 456 950 q 454 927 456 933 q 441 903 452 916 q 413 876 431 890 l 235 732 l 196 732 m 389 732 l 536 917 q 579 960 561 947 q 614 972 597 972 q 643 959 633 972 q 650 939 650 950 q 648 927 650 933 q 634 903 645 916 q 606 876 624 890 l 429 732 l 389 732 z "},"–":{"ha":678,"x_min":168,"x_max":765,"o":"m 168 373 l 222 576 l 765 576 l 710 373 l 168 373 z "},"—":{"ha":746,"x_min":168,"x_max":833,"o":"m 168 373 l 222 576 l 833 576 l 778 373 l 168 373 z "},"‘":{"ha":339,"x_min":191,"x_max":483,"o":"m 245 916 l 483 916 l 428 712 l 324 576 l 222 576 l 191 712 l 245 916 z "},"’":{"ha":339,"x_min":191,"x_max":483,"o":"m 245 916 l 483 916 l 428 712 l 324 576 l 222 576 l 191 712 l 245 916 z "},"‚":{"ha":339,"x_min":0,"x_max":292,"o":"m 54 203 l 292 203 l 237 0 l 133 -136 l 31 -136 l 0 0 l 54 203 z "},"“":{"ha":678,"x_min":191,"x_max":822,"o":"m 245 916 l 483 916 l 428 712 l 324 576 l 222 576 l 191 712 l 245 916 m 585 916 l 822 916 l 767 712 l 663 576 l 562 576 l 530 712 l 585 916 z "},"”":{"ha":678,"x_min":191,"x_max":822,"o":"m 245 916 l 483 916 l 428 712 l 324 576 l 222 576 l 191 712 l 245 916 m 585 916 l 822 916 l 767 712 l 663 576 l 562 576 l 530 712 l 585 916 z "},"„":{"ha":678,"x_min":0,"x_max":631,"o":"m 54 203 l 292 203 l 237 0 l 133 -136 l 31 -136 l 0 0 l 54 203 m 393 203 l 631 203 l 576 0 l 472 -136 l 370 -136 l 339 0 l 393 203 z "},"†":{"ha":694,"x_min":177,"x_max":779,"o":"m 467 693 q 473 747 473 722 q 463 814 473 783 q 447 892 447 869 q 448 901 447 898 q 486 955 456 935 q 557 975 516 975 q 616 956 595 975 q 631 922 631 942 q 629 907 631 916 q 566 814 623 886 q 496 693 519 757 q 626 730 563 699 q 724 768 705 768 q 771 744 758 768 q 779 712 779 730 q 774 679 779 697 q 738 615 764 640 q 682 589 713 589 q 600 627 661 589 q 489 665 551 658 q 480 589 480 625 q 513 477 480 522 q 260 -183 357 165 l 235 -183 q 334 477 323 165 q 460 665 422 546 q 329 628 393 659 q 231 589 250 589 q 184 614 198 589 q 177 646 177 627 q 182 679 177 661 q 218 743 192 718 q 273 768 243 768 q 356 730 295 768 q 467 693 405 699 z "},"‡":{"ha":694,"x_min":25,"x_max":779,"o":"m 345 126 q 476 165 410 134 q 578 202 557 202 q 621 177 609 202 q 627 146 627 163 q 622 113 627 131 q 584 47 611 72 q 524 23 557 23 q 447 62 505 23 q 337 98 401 93 q 332 47 332 72 q 342 -23 332 11 q 355 -102 355 -77 q 354 -116 355 -111 q 316 -164 346 -146 q 247 -183 286 -183 q 187 -163 206 -183 q 174 -130 174 -150 q 177 -110 174 -121 q 239 -22 182 -91 q 308 98 285 33 q 176 61 242 92 q 73 23 95 23 q 32 49 43 23 q 25 80 25 62 q 30 113 25 95 q 68 178 41 153 q 127 202 94 202 q 205 163 146 202 q 315 126 252 133 q 332 264 332 199 q 312 396 332 335 q 460 665 412 512 q 329 628 393 659 q 231 589 250 589 q 184 614 198 589 q 177 646 177 627 q 182 679 177 661 q 218 743 192 718 q 273 768 243 768 q 356 730 295 768 q 467 693 405 699 q 473 747 473 722 q 463 814 473 783 q 447 892 447 869 q 448 901 447 898 q 486 955 456 935 q 557 975 516 975 q 616 956 595 975 q 631 922 631 942 q 629 907 631 916 q 566 814 623 886 q 496 693 519 757 q 626 730 563 699 q 724 768 705 768 q 771 744 758 768 q 779 712 779 730 q 774 679 779 697 q 738 615 764 640 q 682 589 713 589 q 600 627 661 589 q 489 665 551 658 q 471 525 471 591 q 491 396 471 456 q 345 126 391 279 z "},"•":{"ha":503,"x_min":123,"x_max":539,"o":"m 130 487 q 227 629 153 570 q 385 687 302 687 q 511 629 468 687 q 539 541 539 590 q 532 487 539 515 q 435 345 510 404 q 277 286 359 286 q 151 345 193 286 q 123 433 123 383 q 130 487 123 458 z "},"…":{"ha":983,"x_min":68,"x_max":970,"o":"m 122 203 l 359 203 l 305 0 l 68 0 l 122 203 m 427 203 l 665 203 l 610 0 l 373 0 l 427 203 m 732 203 l 970 203 l 916 0 l 678 0 l 732 203 z "},"‹":{"ha":678,"x_min":204,"x_max":819,"o":"m 204 509 l 548 780 l 819 780 l 475 509 l 674 237 l 403 237 l 204 509 z "},"›":{"ha":678,"x_min":132,"x_max":747,"o":"m 403 237 l 132 237 l 475 509 l 277 780 l 548 780 l 747 509 l 403 237 z "},"⁄":{"ha":746,"x_min":68,"x_max":924,"o":"m 305 0 l 68 0 l 686 916 l 924 916 l 305 0 z "},"₣":{"ha":746,"x_min":86,"x_max":856,"o":"m 326 712 l 381 916 l 856 916 l 801 712 l 326 712 m 208 271 l 290 576 l 765 576 l 710 373 l 473 373 l 446 271 l 581 271 l 527 68 l 391 68 l 373 0 l 136 0 l 154 68 l 86 68 l 140 271 l 208 271 z "},"₤":{"ha":678,"x_min":68,"x_max":788,"o":"m 190 203 l 235 373 l 168 373 l 222 576 l 290 576 l 331 729 q 421 861 352 806 q 568 916 490 916 l 788 916 l 733 712 l 631 712 q 578 692 604 712 q 546 644 553 672 l 528 576 l 697 576 l 642 373 l 473 373 l 427 203 l 665 203 l 610 0 l 68 0 l 122 203 l 190 203 z "},"₧":{"ha":746,"x_min":86,"x_max":881,"o":"m 208 271 l 290 576 l 528 576 q 581 596 555 576 q 614 644 606 616 q 616 662 616 654 q 606 692 616 679 q 564 712 591 712 l 326 712 l 381 916 l 737 916 q 854 861 814 916 q 881 780 881 825 q 873 729 881 755 l 828 559 q 738 428 808 482 q 591 373 669 373 l 473 373 l 446 271 l 581 271 l 527 68 l 391 68 l 373 0 l 136 0 l 154 68 l 86 68 l 140 271 l 208 271 z "},"€":{"ha":678,"x_min":168,"x_max":856,"o":"m 473 373 l 446 271 q 443 254 443 262 q 453 224 443 237 q 495 203 467 203 l 665 203 l 610 0 l 322 0 q 205 55 245 0 q 178 136 178 90 q 186 186 178 160 l 235 373 l 168 373 l 222 576 l 290 576 l 331 729 q 421 861 352 806 q 568 916 490 916 l 856 916 l 801 712 l 631 712 q 578 692 604 712 q 546 644 553 672 l 528 576 l 697 576 l 642 373 l 473 373 z "},"№":{"ha":780,"x_min":191,"x_max":936,"o":"m 463 780 q 465 789 465 785 q 460 804 465 798 q 439 814 453 814 l 286 814 l 313 916 l 526 916 q 584 888 564 916 q 597 848 597 871 q 593 823 597 836 l 496 458 l 377 458 l 463 780 m 309 458 l 191 458 l 268 746 l 387 746 l 309 458 m 623 458 q 565 486 585 458 q 551 526 551 503 q 555 551 551 538 l 627 823 q 672 888 637 861 q 746 916 707 916 l 865 916 q 923 888 903 916 q 936 848 936 871 q 932 823 936 836 l 860 551 q 815 485 850 513 q 742 458 781 458 l 623 458 m 684 593 q 683 585 683 589 q 688 570 683 576 q 709 559 696 559 q 736 570 724 559 q 752 593 749 580 l 802 780 q 804 789 804 785 q 800 804 804 798 q 778 814 792 814 q 751 804 764 814 q 734 780 739 794 l 684 593 z "},"™":{"ha":916,"x_min":275,"x_max":1038,"o":"m 471 746 l 394 458 l 275 458 l 353 746 l 471 746 m 286 814 l 313 916 l 602 916 l 574 814 l 286 814 m 904 780 q 905 789 905 785 q 901 804 905 798 q 880 814 894 814 l 608 814 l 635 916 l 966 916 q 1025 888 1005 916 q 1038 848 1038 871 q 1034 823 1038 836 l 937 458 l 818 458 l 904 780 m 784 458 l 665 458 l 743 746 l 861 746 l 784 458 m 631 458 l 513 458 l 590 746 l 709 746 l 631 458 z "},"∂":{"ha":1119,"x_min":0,"x_max":1017,"o":"m 136 0 q 0 136 0 0 l 0 882 q 136 1017 0 1017 l 882 1017 q 1017 882 1017 1017 l 1017 136 q 882 0 1017 0 l 136 0 m 882 17 q 1000 136 1000 17 l 1000 882 q 882 1000 1000 1000 l 136 1000 q 17 882 18 1000 l 17 136 q 136 17 18 17 l 882 17 z "},"∆":{"ha":1119,"x_min":0,"x_max":1017,"o":"m 136 0 q 0 136 0 0 l 0 882 q 136 1017 0 1017 l 882 1017 q 1017 882 1017 1017 l 1017 136 q 882 0 1017 0 l 136 0 m 882 17 q 1000 136 1000 17 l 1000 882 q 882 1000 1000 1000 l 136 1000 q 17 882 18 1000 l 17 136 q 136 17 18 17 l 882 17 z "},"∏":{"ha":1119,"x_min":0,"x_max":1017,"o":"m 136 0 q 0 136 0 0 l 0 882 q 136 1017 0 1017 l 882 1017 q 1017 882 1017 1017 l 1017 136 q 882 0 1017 0 l 136 0 m 882 17 q 1000 136 1000 17 l 1000 882 q 882 1000 1000 1000 l 136 1000 q 17 882 18 1000 l 17 136 q 136 17 18 17 l 882 17 z "},"∑":{"ha":1119,"x_min":0,"x_max":1017,"o":"m 136 0 q 0 136 0 0 l 0 882 q 136 1017 0 1017 l 882 1017 q 1017 882 1017 1017 l 1017 136 q 882 0 1017 0 l 136 0 m 882 17 q 1000 136 1000 17 l 1000 882 q 882 1000 1000 1000 l 136 1000 q 17 882 18 1000 l 17 136 q 136 17 18 17 l 882 17 z "},"−":{"ha":678,"x_min":168,"x_max":765,"o":"m 168 373 l 222 576 l 765 576 l 710 373 l 168 373 z "},"≈":{"ha":1119,"x_min":0,"x_max":1017,"o":"m 136 0 q 0 136 0 0 l 0 882 q 136 1017 0 1017 l 882 1017 q 1017 882 1017 1017 l 1017 136 q 882 0 1017 0 l 136 0 m 882 17 q 1000 136 1000 17 l 1000 882 q 882 1000 1000 1000 l 136 1000 q 17 882 18 1000 l 17 136 q 136 17 18 17 l 882 17 z "},"≤":{"ha":1119,"x_min":0,"x_max":1017,"o":"m 136 0 q 0 136 0 0 l 0 882 q 136 1017 0 1017 l 882 1017 q 1017 882 1017 1017 l 1017 136 q 882 0 1017 0 l 136 0 m 882 17 q 1000 136 1000 17 l 1000 882 q 882 1000 1000 1000 l 136 1000 q 17 882 18 1000 l 17 136 q 136 17 18 17 l 882 17 z "},"≥":{"ha":1119,"x_min":0,"x_max":1017,"o":"m 136 0 q 0 136 0 0 l 0 882 q 136 1017 0 1017 l 882 1017 q 1017 882 1017 1017 l 1017 136 q 882 0 1017 0 l 136 0 m 882 17 q 1000 136 1000 17 l 1000 882 q 882 1000 1000 1000 l 136 1000 q 17 882 18 1000 l 17 136 q 136 17 18 17 l 882 17 z "},"":{"ha":102,"x_min":0,"x_max":0,"o":""},"":{"ha":102,"x_min":0,"x_max":0,"o":""},"Œ":{"ha":1051,"x_min":111,"x_max":1229,"o":"m 378 271 q 375 254 375 262 q 385 224 375 237 q 427 203 399 203 q 480 223 455 203 q 513 271 506 243 l 614 644 q 616 662 616 654 q 606 692 616 679 q 564 712 591 712 q 511 692 536 712 q 478 644 486 672 l 378 271 m 1229 916 l 1174 712 l 869 712 l 833 576 l 1070 576 l 1015 373 l 778 373 l 732 203 l 1038 203 l 983 0 l 254 0 q 137 55 177 0 q 111 136 111 90 q 118 186 111 160 l 263 729 q 353 861 284 806 q 500 916 422 916 l 1229 916 z "},"œ":{"ha":1119,"x_min":111,"x_max":1199,"o":"m 378 271 q 375 254 375 262 q 385 224 375 237 q 427 203 399 203 q 480 223 455 203 q 513 271 506 243 l 559 441 q 562 458 562 450 q 552 489 562 475 q 509 509 537 509 q 456 489 481 509 q 423 441 431 469 l 378 271 m 932 441 q 935 458 935 450 q 925 489 935 475 q 882 509 910 509 q 829 489 854 509 q 796 441 804 469 l 932 441 m 564 17 q 492 0 528 0 l 254 0 q 137 55 177 0 q 111 136 111 90 q 118 186 111 160 l 209 526 q 298 657 229 603 q 445 712 368 712 l 682 712 q 746 695 719 712 q 818 712 781 712 l 1055 712 q 1173 658 1133 712 q 1199 575 1199 621 q 1192 526 1199 551 l 1115 237 l 742 237 l 732 203 l 1038 203 l 983 0 l 627 0 q 564 17 591 0 z "},"‰":{"ha":1458,"x_min":102,"x_max":1511,"o":"m 460 576 q 457 559 457 567 q 467 529 457 542 q 509 509 481 509 q 563 529 537 509 q 595 576 588 549 l 614 644 q 616 662 616 654 q 606 692 616 679 q 564 712 591 712 q 511 692 536 712 q 478 644 486 672 l 460 576 m 717 271 q 714 254 714 262 q 724 224 714 237 q 766 203 739 203 q 820 223 794 203 q 852 271 845 243 l 871 339 q 873 357 873 349 q 864 387 873 374 q 821 407 849 407 q 768 387 793 407 q 735 339 743 367 l 717 271 m 1090 271 q 1087 254 1087 262 q 1097 224 1087 237 q 1139 203 1112 203 q 1193 223 1167 203 q 1225 271 1218 243 l 1244 339 q 1246 357 1246 349 q 1237 387 1246 374 q 1194 407 1222 407 q 1141 387 1166 407 q 1108 339 1116 367 l 1090 271 m 902 12 q 831 0 867 0 l 593 0 q 477 55 516 0 q 458 90 464 71 l 373 0 l 102 0 l 387 305 l 336 305 q 219 360 259 305 q 193 442 193 396 q 199 492 193 466 l 263 729 q 353 861 284 806 q 500 916 422 916 l 737 916 q 854 861 814 916 q 873 825 867 844 l 958 916 l 1229 916 l 943 610 l 994 610 q 1059 598 1031 610 q 1130 610 1093 610 l 1367 610 q 1485 556 1444 610 q 1511 475 1511 520 q 1503 424 1511 450 l 1440 186 q 1350 55 1419 109 q 1204 0 1281 0 l 966 0 q 902 12 930 0 z "}}}
